<?xml version="1.0" encoding="utf-8"?>
<!-- Generator: Adobe Illustrator 22.0.1, SVG Export Plug-In . SVG Version: 6.00 Build 0)  -->
<svg version="1.1" xmlns="http://www.w3.org/2000/svg" xmlns:xlink="http://www.w3.org/1999/xlink" x="0px" y="0px"
	 viewBox="0 0 500 229.237" enable-background="new 0 0 500 229.237" xml:space="preserve">
<g id="Ebene_2">
	<circle fill="none" stroke="#000000" stroke-width="2" stroke-miterlimit="10" cx="262.154" cy="19.803" r="7.583"/>
	<path fill="none" stroke="#000000" stroke-width="2" stroke-miterlimit="10" d="M81.028,124.055
		c0.632,2.028,0.972,4.184,0.972,6.42c0,11.908-9.653,21.561-21.561,21.561s-21.561-9.653-21.561-21.561s9.653-21.561,21.561-21.561
		c0.432,0,0.86,0.013,1.286,0.038c0,0-4.28,5.78,0.126,10.187c4.406,4.406,7.059,1.968,7.059,1.968s-2.353,7.016,2.909,8.77
		C77.08,131.631,81.028,124.055,81.028,124.055z"/>
	<circle cx="50.813" cy="131.374" r="2.727"/>
	<circle cx="68.183" cy="137.257" r="3.156"/>
	<circle cx="54.279" cy="140.807" r="1.928"/>
	<rect x="2.5" y="5.5" fill="none" stroke="#000000" stroke-width="2" stroke-miterlimit="10" width="274" height="160"/>
	<line fill="#010202" stroke="#010202" stroke-width="2" stroke-miterlimit="10" x1="3" y1="33.513" x2="277" y2="33.513"/>
	<line fill="#010202" stroke="#010202" stroke-width="2" stroke-miterlimit="10" x1="21" y1="61.513" x2="258" y2="61.513"/>
	<line fill="#010202" stroke="#010202" stroke-width="2" stroke-miterlimit="10" x1="21" y1="81.513" x2="258" y2="81.513"/>
	<rect x="171.5" y="125.5" fill="none" stroke="#000000" stroke-width="2" stroke-miterlimit="10" width="85" height="23"/>
</g>
<g id="Ebene_1">
</g>
</svg>
