<?xml version="1.0" encoding="utf-8"?>
<!-- Generator: Adobe Illustrator 22.0.1, SVG Export Plug-In . SVG Version: 6.00 Build 0)  -->
<svg version="1.1" xmlns="http://www.w3.org/2000/svg" xmlns:xlink="http://www.w3.org/1999/xlink" x="0px" y="0px"
	 viewBox="0 0 508.922 382.667" enable-background="new 0 0 508.922 382.667" xml:space="preserve">
<g id="Ebene_2">
	<polyline fill="none" stroke="#000000" stroke-width="3" stroke-miterlimit="10" points="356.743,120.001 299.003,120.001 
		299.003,171.837 299.003,175.882 198.666,175.882 198.666,199.859 	"/>
	<polyline fill="none" stroke="#000000" stroke-width="3" stroke-miterlimit="10" points="227.672,52.001 356.743,52.001 
		356.743,71.643 	"/>
	<polyline fill="none" stroke="#000000" stroke-width="3" stroke-miterlimit="10" points="227.672,52.001 100.67,52.001 
		100.67,71.643 	"/>
	<polyline fill="none" stroke="#000000" stroke-width="3" stroke-miterlimit="10" points="100.67,120.001 42.929,120.001 
		42.929,131.003 	"/>
	<polyline fill="none" stroke="#000000" stroke-width="3" stroke-miterlimit="10" points="100.67,120.001 158.411,120.001 
		158.411,131.003 	"/>
	<line fill="none" stroke="#000000" stroke-width="3" stroke-miterlimit="10" x1="227.672" y1="51.501" x2="227.672" y2="36.263"/>
	<line fill="none" stroke="#000000" stroke-width="3" stroke-miterlimit="10" x1="100.67" y1="120.121" x2="100.67" y2="99.875"/>
	<polyline fill="none" stroke="#000000" stroke-width="3" stroke-miterlimit="10" points="198.666,247.779 140.925,247.779 
		140.925,258.781 	"/>
	<polyline fill="none" stroke="#000000" stroke-width="3" stroke-miterlimit="10" points="198.666,247.779 256.407,247.779 
		256.407,258.781 	"/>
	<line fill="none" stroke="#000000" stroke-width="3" stroke-miterlimit="10" x1="198.666" y1="247.9" x2="198.666" y2="227.653"/>
	<line fill="none" stroke="#000000" stroke-width="3" stroke-miterlimit="10" x1="356.743" y1="120.121" x2="356.743" y2="99.875"/>
	<polyline fill="none" stroke="#000000" stroke-width="3" stroke-miterlimit="10" points="356.743,120.001 414.484,120.001 
		414.484,176.25 462.503,176.25 462.503,243.217 	"/>
	<line fill="none" stroke="#000000" stroke-width="3" stroke-miterlimit="10" x1="140.925" y1="301.5" x2="140.925" y2="289.208"/>
	
		<line fill="none" stroke="#000000" stroke-width="3" stroke-miterlimit="10" x1="140.925" y1="343.673" x2="140.925" y2="331.381"/>
	<line fill="none" stroke="#000000" stroke-width="3" stroke-miterlimit="10" x1="256.407" y1="301.5" x2="256.407" y2="289.208"/>
	
		<line fill="none" stroke="#000000" stroke-width="3" stroke-miterlimit="10" x1="256.407" y1="343.673" x2="256.407" y2="331.381"/>
	
		<line fill="none" stroke="#000000" stroke-width="3" stroke-miterlimit="10" x1="330.721" y1="214.288" x2="318.429" y2="214.288"/>
	<line fill="none" stroke="#000000" stroke-width="3" stroke-miterlimit="10" x1="42.929" y1="159.861" x2="42.929" y2="171.625"/>
</g>
<g id="Ebene_1">
	
		<line fill="none" stroke="#000000" stroke-width="3" stroke-miterlimit="10" x1="427.547" y1="228.717" x2="405.547" y2="244.875"/>
	<rect x="7.411" y="169.475" fill="#84847B" width="85.974" height="28.859"/>
	
		<rect x="426.984" y="199.859" fill="#FFFFFF" stroke="#84847B" stroke-width="3" stroke-miterlimit="10" width="71.037" height="28.859"/>
	
		<rect x="378.966" y="131.003" fill="#FFFFFF" stroke="#84847B" stroke-width="3" stroke-miterlimit="10" width="71.037" height="28.859"/>
	
		<rect x="263.484" y="131.003" fill="#FFFFFF" stroke="#84847B" stroke-width="3" stroke-miterlimit="10" width="71.037" height="28.859"/>
	<g>
		<path fill="#84847B" d="M276.781,149.502v-3.888c0-0.578-0.124-1.004-0.371-1.276c-0.248-0.272-0.585-0.409-1.013-0.409
			c-0.99,0-1.484,0.554-1.484,1.661v3.912h-1.095v-6.429h1.095v0.654c0.394-0.536,0.947-0.805,1.66-0.805
			c0.755,0,1.327,0.229,1.717,0.686c0.391,0.457,0.585,1.188,0.585,2.195v3.698H276.781z"/>
		<path fill="#84847B" d="M283.586,149.502v-0.592c-0.528,0.495-1.136,0.742-1.823,0.742c-0.68,0-1.223-0.187-1.63-0.56
			c-0.406-0.373-0.609-0.907-0.609-1.604s0.23-1.225,0.691-1.585s1.031-0.541,1.711-0.541c0.62,0,1.174,0.138,1.66,0.415v-0.453
			c0-0.536-0.119-0.912-0.358-1.126c-0.238-0.214-0.585-0.32-1.037-0.32c-0.646,0-1.271,0.214-1.875,0.642l-0.314-0.919
			c0.688-0.452,1.464-0.679,2.327-0.679c1.526,0,2.29,0.771,2.29,2.314v4.265H283.586z M281.925,148.684
			c0.629,0,1.183-0.28,1.66-0.843v-1.106c-0.461-0.285-0.964-0.428-1.509-0.428c-0.445,0-0.81,0.101-1.095,0.302
			s-0.428,0.495-0.428,0.881c0,0.36,0.119,0.649,0.358,0.868C281.152,148.575,281.489,148.684,281.925,148.684z"/>
		<path fill="#84847B" d="M288.051,149.502l-2.353-6.429h1.107l1.521,4.29c0.109,0.318,0.177,0.528,0.201,0.629
			c0.025-0.101,0.093-0.311,0.201-0.629l1.497-4.29h1.095l-2.353,6.429H288.051z"/>
	</g>
	<g>
		<path fill="#84847B" d="M395.835,149.502v-3.899c0-1.115-0.432-1.674-1.296-1.674c-0.411,0-0.744,0.157-1,0.472
			s-0.384,0.728-0.384,1.239v3.862h-1.094v-3.899c0-1.115-0.428-1.674-1.283-1.674c-0.428,0-0.766,0.149-1.013,0.447
			c-0.248,0.298-0.371,0.702-0.371,1.214v3.912h-1.095v-6.429h1.095v0.604c0.377-0.504,0.938-0.755,1.686-0.755
			c0.36,0,0.693,0.082,1,0.245c0.306,0.163,0.547,0.396,0.724,0.698c0.41-0.629,1.031-0.943,1.861-0.943
			c0.671,0,1.216,0.205,1.636,0.616c0.419,0.411,0.629,0.994,0.629,1.749v4.214H395.835z"/>
		<path fill="#84847B" d="M402.627,149.502v-0.592c-0.528,0.495-1.136,0.742-1.823,0.742c-0.68,0-1.223-0.187-1.63-0.56
			c-0.406-0.373-0.609-0.907-0.609-1.604s0.23-1.225,0.691-1.585s1.031-0.541,1.711-0.541c0.62,0,1.174,0.138,1.66,0.415v-0.453
			c0-0.536-0.119-0.912-0.358-1.126c-0.238-0.214-0.585-0.32-1.037-0.32c-0.646,0-1.271,0.214-1.875,0.642l-0.314-0.919
			c0.688-0.452,1.464-0.679,2.327-0.679c1.526,0,2.29,0.771,2.29,2.314v4.265H402.627z M400.966,148.684
			c0.629,0,1.183-0.28,1.66-0.843v-1.106c-0.461-0.285-0.964-0.428-1.509-0.428c-0.445,0-0.81,0.101-1.095,0.302
			s-0.428,0.495-0.428,0.881c0,0.36,0.119,0.649,0.358,0.868C400.193,148.575,400.53,148.684,400.966,148.684z"/>
		<path fill="#84847B" d="M406.602,141.709c-0.134,0.13-0.298,0.194-0.49,0.194c-0.193,0-0.354-0.066-0.484-0.201
			c-0.13-0.134-0.195-0.293-0.195-0.478c0-0.193,0.067-0.358,0.201-0.497c0.135-0.139,0.294-0.208,0.479-0.208
			c0.192,0,0.356,0.069,0.49,0.208c0.135,0.139,0.201,0.304,0.201,0.497C406.803,141.417,406.737,141.579,406.602,141.709z
			 M405.571,149.502v-6.429h1.095v6.429H405.571z"/>
		<path fill="#84847B" d="M412.716,149.502v-3.888c0-0.578-0.124-1.004-0.371-1.276c-0.248-0.272-0.585-0.409-1.013-0.409
			c-0.99,0-1.484,0.554-1.484,1.661v3.912h-1.095v-6.429h1.095v0.654c0.394-0.536,0.947-0.805,1.66-0.805
			c0.755,0,1.327,0.229,1.717,0.686c0.391,0.457,0.585,1.188,0.585,2.195v3.698H412.716z"/>
	</g>
	<g>
		<g>
			<path fill="#84847B" d="M202.522,25.903v-8.579l1.095-0.503v3.321c0.394-0.545,0.947-0.818,1.66-0.818
				c0.755,0,1.327,0.229,1.717,0.686c0.391,0.458,0.585,1.189,0.585,2.195v3.698h-1.094v-3.887c0-0.579-0.124-1.004-0.371-1.277
				c-0.248-0.272-0.585-0.409-1.013-0.409c-0.99,0-1.484,0.554-1.484,1.661v3.912H202.522z"/>
			<path fill="#84847B" d="M211.34,26.054c-0.906,0-1.358-0.511-1.358-1.535v-4.088h-1.045v-0.956h1.045v-2.126l1.094-0.528v2.654
				h1.585v0.956h-1.585v3.724c0,0.285,0.046,0.503,0.139,0.654c0.092,0.151,0.269,0.226,0.528,0.226
				c0.285,0,0.604-0.113,0.956-0.339l-0.126,1.069C212.204,25.958,211.793,26.054,211.34,26.054z"/>
			<path fill="#84847B" d="M221.844,25.903v-3.899c0-1.115-0.432-1.673-1.296-1.673c-0.411,0-0.744,0.157-1,0.472
				s-0.384,0.728-0.384,1.239v3.862h-1.094v-3.899c0-1.115-0.428-1.673-1.283-1.673c-0.428,0-0.766,0.149-1.013,0.447
				c-0.248,0.298-0.371,0.702-0.371,1.214v3.912h-1.095v-6.428h1.095v0.604c0.377-0.503,0.938-0.755,1.686-0.755
				c0.36,0,0.693,0.082,1,0.246c0.306,0.163,0.547,0.396,0.724,0.698c0.41-0.629,1.031-0.943,1.861-0.943
				c0.671,0,1.216,0.206,1.636,0.617c0.419,0.411,0.629,0.994,0.629,1.749v4.214H221.844z"/>
			<path fill="#84847B" d="M225.014,25.903v-8.566l1.094-0.516v9.083H225.014z"/>
		</g>
		
			<rect x="193.188" y="7.404" fill="none" stroke="#84847B" stroke-width="3" stroke-miterlimit="10" width="71.037" height="28.859"/>
	</g>
	<g>
		<g>
			<path fill="#84847B" d="M74.485,90.142v-8.579l1.095-0.503v3.321c0.394-0.545,0.947-0.818,1.66-0.818
				c0.755,0,1.327,0.229,1.717,0.686c0.391,0.458,0.585,1.189,0.585,2.195v3.698h-1.094v-3.887c0-0.579-0.124-1.004-0.371-1.277
				c-0.248-0.272-0.585-0.409-1.013-0.409c-0.99,0-1.484,0.554-1.484,1.661v3.912H74.485z"/>
			<path fill="#84847B" d="M84.046,90.293c-0.872,0-1.566-0.312-2.082-0.937c-0.516-0.625-0.773-1.436-0.773-2.434
				c0-1.048,0.26-1.87,0.779-2.466c0.521-0.595,1.212-0.893,2.076-0.893c0.771,0,1.406,0.258,1.905,0.774
				c0.499,0.516,0.749,1.276,0.749,2.283c0,0.235-0.013,0.478-0.038,0.73h-4.353c0.042,0.587,0.225,1.059,0.547,1.415
				c0.323,0.356,0.728,0.535,1.215,0.535c0.536,0,0.997-0.193,1.383-0.579l0.667,0.742C85.567,90.016,84.876,90.293,84.046,90.293z
				 M82.296,86.418h3.296c-0.008-0.662-0.166-1.143-0.472-1.44c-0.306-0.297-0.665-0.446-1.075-0.446
				c-0.495,0-0.901,0.157-1.221,0.472C82.506,85.318,82.33,85.79,82.296,86.418z"/>
			<path fill="#84847B" d="M92.02,90.142v-0.591c-0.528,0.495-1.136,0.742-1.823,0.742c-0.68,0-1.223-0.187-1.63-0.56
				c-0.406-0.373-0.609-0.908-0.609-1.604c0-0.696,0.23-1.224,0.691-1.585c0.461-0.36,1.031-0.541,1.711-0.541
				c0.62,0,1.174,0.138,1.66,0.415v-0.453c0-0.537-0.119-0.912-0.358-1.126c-0.238-0.214-0.585-0.321-1.037-0.321
				c-0.646,0-1.271,0.214-1.875,0.642l-0.314-0.918c0.688-0.453,1.464-0.679,2.327-0.679c1.526,0,2.29,0.772,2.29,2.314v4.265H92.02
				z M90.36,89.324c0.629,0,1.183-0.281,1.66-0.843v-1.107c-0.461-0.285-0.964-0.428-1.509-0.428c-0.445,0-0.81,0.101-1.095,0.302
				c-0.285,0.201-0.428,0.495-0.428,0.88c0,0.361,0.119,0.65,0.358,0.868C89.587,89.215,89.923,89.324,90.36,89.324z"/>
			<path fill="#84847B" d="M97.228,90.293c-0.813,0-1.46-0.302-1.938-0.906c-0.479-0.604-0.717-1.425-0.717-2.465
				c0-1.048,0.24-1.87,0.723-2.466c0.482-0.595,1.126-0.893,1.932-0.893c0.629,0,1.17,0.201,1.622,0.604v-2.591l1.095-0.516v9.083
				H98.85v-0.503C98.431,90.075,97.89,90.293,97.228,90.293z M97.379,89.274c0.638,0,1.128-0.289,1.472-0.868v-3.019
				c-0.344-0.545-0.834-0.818-1.472-0.818c-0.545,0-0.964,0.204-1.258,0.61s-0.44,0.987-0.44,1.742c0,0.679,0.153,1.241,0.459,1.686
				C96.446,89.052,96.859,89.274,97.379,89.274z"/>
		</g>
		
			<rect x="65.151" y="71.643" fill="none" stroke="#84847B" stroke-width="3" stroke-miterlimit="10" width="71.037" height="28.859"/>
	</g>
	<g>
		<path fill="#84847B" d="M18.48,149.652c-0.906,0-1.358-0.511-1.358-1.534v-4.089h-1.045v-0.956h1.045v-2.126l1.094-0.528v2.654
			H19.8v0.956h-1.585v3.724c0,0.285,0.046,0.504,0.139,0.654c0.092,0.151,0.269,0.227,0.528,0.227c0.285,0,0.604-0.113,0.956-0.34
			l-0.126,1.069C19.343,149.557,18.932,149.652,18.48,149.652z"/>
		<path fill="#84847B" d="M22.493,141.709c-0.134,0.13-0.298,0.194-0.49,0.194c-0.193,0-0.354-0.066-0.484-0.201
			c-0.13-0.134-0.195-0.293-0.195-0.478c0-0.193,0.067-0.358,0.201-0.497c0.135-0.139,0.294-0.208,0.479-0.208
			c0.192,0,0.356,0.069,0.49,0.208c0.135,0.139,0.201,0.304,0.201,0.497C22.694,141.417,22.628,141.579,22.493,141.709z
			 M21.462,149.502v-6.429h1.095v6.429H21.462z"/>
		<path fill="#84847B" d="M26.379,149.652c-0.906,0-1.358-0.511-1.358-1.534v-4.089h-1.045v-0.956h1.045v-2.126l1.094-0.528v2.654
			H27.7v0.956h-1.585v3.724c0,0.285,0.046,0.504,0.139,0.654c0.092,0.151,0.269,0.227,0.528,0.227c0.285,0,0.604-0.113,0.956-0.34
			l-0.126,1.069C27.243,149.557,26.832,149.652,26.379,149.652z"/>
		<path fill="#84847B" d="M29.412,149.502v-8.566l1.094-0.517v9.083H29.412z"/>
		<path fill="#84847B" d="M35.123,149.652c-0.872,0-1.566-0.312-2.082-0.937s-0.773-1.437-0.773-2.435
			c0-1.048,0.26-1.87,0.779-2.466c0.521-0.595,1.212-0.893,2.076-0.893c0.771,0,1.406,0.258,1.905,0.773s0.749,1.276,0.749,2.283
			c0,0.235-0.013,0.478-0.038,0.729h-4.353c0.042,0.587,0.225,1.059,0.547,1.415c0.323,0.356,0.728,0.535,1.215,0.535
			c0.536,0,0.997-0.193,1.383-0.579l0.667,0.742C36.644,149.376,35.953,149.652,35.123,149.652z M33.374,145.778h3.296
			c-0.008-0.662-0.166-1.143-0.472-1.44s-0.665-0.446-1.075-0.446c-0.495,0-0.901,0.157-1.221,0.472
			C33.584,144.678,33.407,145.149,33.374,145.778z"/>
	</g>
	<g>
		<path fill="#FFFFFF" d="M19.499,188.319c-0.746,0-1.395-0.182-1.943-0.547c-0.55-0.365-0.925-0.836-1.126-1.415l1.031-0.377
			c0.185,0.403,0.457,0.722,0.818,0.956c0.36,0.235,0.775,0.353,1.245,0.353c0.536,0,0.96-0.128,1.271-0.384
			s0.466-0.623,0.466-1.101c0-0.461-0.175-0.831-0.522-1.107c-0.348-0.277-0.837-0.529-1.466-0.755
			c-0.302-0.109-0.551-0.206-0.748-0.29c-0.197-0.083-0.424-0.203-0.68-0.358s-0.459-0.314-0.609-0.478
			c-0.151-0.164-0.279-0.369-0.384-0.616c-0.105-0.248-0.157-0.518-0.157-0.812c0-0.612,0.243-1.128,0.729-1.547
			c0.486-0.419,1.145-0.629,1.975-0.629c0.68,0,1.245,0.145,1.698,0.434c0.453,0.289,0.746,0.669,0.881,1.138l-1.007,0.34
			c-0.117-0.26-0.318-0.474-0.604-0.642c-0.285-0.167-0.634-0.251-1.044-0.251c-0.462,0-0.826,0.103-1.095,0.308
			s-0.402,0.489-0.402,0.849c0,0.193,0.048,0.369,0.145,0.528s0.247,0.302,0.453,0.428c0.205,0.126,0.396,0.227,0.572,0.302
			c0.176,0.076,0.419,0.172,0.729,0.29c0.386,0.143,0.704,0.279,0.956,0.409c0.252,0.13,0.524,0.304,0.817,0.522
			c0.294,0.218,0.516,0.489,0.667,0.812s0.227,0.69,0.227,1.101c0,0.789-0.269,1.409-0.806,1.862
			C21.05,188.093,20.354,188.319,19.499,188.319z"/>
		<path fill="#FFFFFF" d="M26.757,188.319c-0.872,0-1.566-0.312-2.082-0.937c-0.516-0.625-0.773-1.436-0.773-2.434
			c0-1.048,0.26-1.87,0.779-2.466c0.521-0.595,1.212-0.893,2.076-0.893c0.771,0,1.406,0.258,1.905,0.774
			c0.499,0.516,0.749,1.276,0.749,2.283c0,0.235-0.013,0.478-0.038,0.73h-4.353c0.042,0.587,0.225,1.059,0.547,1.415
			c0.323,0.356,0.728,0.535,1.215,0.535c0.536,0,0.997-0.193,1.383-0.579l0.667,0.742C28.279,188.042,27.587,188.319,26.757,188.319
			z M25.008,184.445h3.296c-0.008-0.662-0.166-1.143-0.472-1.44c-0.306-0.297-0.665-0.446-1.075-0.446
			c-0.495,0-0.901,0.157-1.221,0.472C25.218,183.344,25.042,183.816,25.008,184.445z"/>
		<path fill="#FFFFFF" d="M32.09,180.375c-0.134,0.13-0.298,0.195-0.49,0.195c-0.193,0-0.354-0.067-0.484-0.201
			c-0.13-0.134-0.195-0.293-0.195-0.478c0-0.193,0.067-0.358,0.201-0.497c0.135-0.139,0.294-0.208,0.479-0.208
			c0.192,0,0.356,0.069,0.49,0.208c0.135,0.138,0.201,0.304,0.201,0.497S32.225,180.246,32.09,180.375z M31.059,188.168v-6.428
			h1.095v6.428H31.059z"/>
		<path fill="#FFFFFF" d="M35.978,188.319c-0.906,0-1.358-0.511-1.358-1.535v-4.088h-1.045v-0.956h1.045v-2.126l1.094-0.528v2.654
			h1.585v0.956h-1.585v3.724c0,0.285,0.046,0.503,0.139,0.654c0.092,0.151,0.269,0.226,0.528,0.226c0.285,0,0.604-0.113,0.956-0.339
			l-0.126,1.069C36.841,188.223,36.43,188.319,35.978,188.319z"/>
		<path fill="#FFFFFF" d="M41.299,188.319c-0.872,0-1.566-0.312-2.082-0.937c-0.516-0.625-0.773-1.436-0.773-2.434
			c0-1.048,0.26-1.87,0.779-2.466c0.521-0.595,1.212-0.893,2.076-0.893c0.771,0,1.406,0.258,1.905,0.774
			c0.499,0.516,0.749,1.276,0.749,2.283c0,0.235-0.013,0.478-0.038,0.73h-4.353c0.042,0.587,0.225,1.059,0.547,1.415
			c0.323,0.356,0.728,0.535,1.215,0.535c0.536,0,0.997-0.193,1.383-0.579l0.667,0.742C42.821,188.042,42.129,188.319,41.299,188.319
			z M39.55,184.445h3.296c-0.008-0.662-0.166-1.143-0.472-1.44c-0.306-0.297-0.665-0.446-1.075-0.446
			c-0.495,0-0.901,0.157-1.221,0.472C39.76,183.344,39.584,183.816,39.55,184.445z"/>
		<path fill="#FFFFFF" d="M49.551,188.168v-3.887c0-0.579-0.124-1.004-0.371-1.277c-0.248-0.272-0.585-0.409-1.013-0.409
			c-0.99,0-1.484,0.554-1.484,1.661v3.912h-1.095v-6.428h1.095v0.654c0.394-0.537,0.947-0.805,1.66-0.805
			c0.755,0,1.327,0.229,1.717,0.686c0.391,0.458,0.585,1.189,0.585,2.195v3.698H49.551z"/>
		<path fill="#FFFFFF" d="M56.633,188.168v-3.887c0-0.579-0.124-1.004-0.371-1.277c-0.248-0.272-0.585-0.409-1.013-0.409
			c-0.99,0-1.484,0.554-1.484,1.661v3.912h-1.095v-6.428h1.095v0.654c0.394-0.537,0.947-0.805,1.66-0.805
			c0.755,0,1.327,0.229,1.717,0.686c0.391,0.458,0.585,1.189,0.585,2.195v3.698H56.633z"/>
		<path fill="#FFFFFF" d="M63.438,188.168v-0.591c-0.528,0.495-1.136,0.742-1.823,0.742c-0.68,0-1.223-0.187-1.63-0.56
			c-0.406-0.373-0.609-0.908-0.609-1.604c0-0.696,0.23-1.224,0.691-1.585c0.461-0.36,1.031-0.541,1.711-0.541
			c0.62,0,1.174,0.138,1.66,0.415v-0.453c0-0.537-0.119-0.912-0.358-1.126c-0.238-0.214-0.585-0.321-1.037-0.321
			c-0.646,0-1.271,0.214-1.875,0.642l-0.314-0.918c0.688-0.453,1.464-0.679,2.327-0.679c1.526,0,2.29,0.772,2.29,2.314v4.265H63.438
			z M61.778,187.351c0.629,0,1.183-0.281,1.66-0.843v-1.107c-0.461-0.285-0.964-0.428-1.509-0.428c-0.445,0-0.81,0.101-1.095,0.302
			c-0.285,0.201-0.428,0.495-0.428,0.88c0,0.361,0.119,0.65,0.358,0.868C61.004,187.242,61.341,187.351,61.778,187.351z"/>
		<path fill="#FFFFFF" d="M73.904,188.168v-3.899c0-1.115-0.432-1.673-1.296-1.673c-0.411,0-0.744,0.157-1,0.472
			s-0.384,0.728-0.384,1.239v3.862H70.13v-3.899c0-1.115-0.428-1.673-1.283-1.673c-0.428,0-0.766,0.149-1.013,0.447
			c-0.248,0.298-0.371,0.702-0.371,1.214v3.912h-1.095v-6.428h1.095v0.604c0.377-0.503,0.938-0.755,1.686-0.755
			c0.36,0,0.693,0.082,1,0.246c0.306,0.163,0.547,0.396,0.724,0.698c0.41-0.629,1.031-0.943,1.861-0.943
			c0.671,0,1.216,0.206,1.636,0.617c0.419,0.411,0.629,0.994,0.629,1.749v4.214H73.904z"/>
		<path fill="#FFFFFF" d="M79.49,188.319c-0.872,0-1.566-0.312-2.082-0.937c-0.516-0.625-0.773-1.436-0.773-2.434
			c0-1.048,0.26-1.87,0.779-2.466c0.521-0.595,1.212-0.893,2.076-0.893c0.771,0,1.406,0.258,1.905,0.774
			c0.499,0.516,0.749,1.276,0.749,2.283c0,0.235-0.013,0.478-0.038,0.73h-4.353c0.042,0.587,0.225,1.059,0.547,1.415
			c0.323,0.356,0.728,0.535,1.215,0.535c0.536,0,0.997-0.193,1.383-0.579l0.667,0.742C81.011,188.042,80.32,188.319,79.49,188.319z
			 M77.741,184.445h3.296c-0.008-0.662-0.166-1.143-0.472-1.44c-0.306-0.297-0.665-0.446-1.075-0.446
			c-0.495,0-0.901,0.157-1.221,0.472C77.951,183.344,77.774,183.816,77.741,184.445z"/>
	</g>
	<rect x="105.407" y="342.141" fill="#84847B" width="72.457" height="28.859"/>
	<g>
		<path fill="#FFFFFF" d="M114.929,360.835v-8.806h1.095v7.749h4.327v1.057H114.929z"/>
		<path fill="#FFFFFF" d="M122.817,353.042c-0.134,0.13-0.298,0.195-0.49,0.195c-0.193,0-0.354-0.067-0.484-0.201
			c-0.13-0.134-0.195-0.293-0.195-0.478c0-0.193,0.067-0.358,0.201-0.497c0.135-0.139,0.294-0.208,0.479-0.208
			c0.192,0,0.356,0.069,0.49,0.208c0.135,0.138,0.201,0.304,0.201,0.497S122.952,352.912,122.817,353.042z M121.786,360.835v-6.428
			h1.095v6.428H121.786z"/>
		<path fill="#FFFFFF" d="M128.93,360.835v-3.887c0-0.579-0.124-1.004-0.371-1.277c-0.248-0.272-0.585-0.409-1.013-0.409
			c-0.99,0-1.484,0.554-1.484,1.661v3.912h-1.095v-6.428h1.095v0.654c0.394-0.537,0.947-0.805,1.66-0.805
			c0.755,0,1.327,0.229,1.717,0.686c0.391,0.458,0.585,1.189,0.585,2.195v3.698H128.93z"/>
		<path fill="#FFFFFF" d="M137.27,360.835h-1.195l-1.987-3.887l-0.943,0.981v2.906h-1.095v-8.566l1.095-0.516v4.869l2.088-2.214
			h1.309l-1.686,1.749L137.27,360.835z"/>
		<path fill="#FFFFFF" d="M140.339,360.986c-0.906,0-1.358-0.511-1.358-1.535v-4.088h-1.045v-0.956h1.045v-2.126l1.094-0.528v2.654
			h1.585v0.956h-1.585v3.724c0,0.285,0.046,0.503,0.139,0.654c0.092,0.151,0.269,0.226,0.528,0.226c0.285,0,0.604-0.113,0.956-0.339
			l-0.126,1.069C141.203,360.89,140.792,360.986,140.339,360.986z"/>
		<path fill="#FFFFFF" d="M145.661,360.986c-0.872,0-1.566-0.312-2.082-0.937c-0.516-0.625-0.773-1.436-0.773-2.434
			c0-1.048,0.26-1.87,0.779-2.466c0.521-0.595,1.212-0.893,2.076-0.893c0.771,0,1.406,0.258,1.905,0.774
			c0.499,0.516,0.749,1.276,0.749,2.283c0,0.235-0.013,0.478-0.038,0.73h-4.353c0.042,0.587,0.225,1.059,0.547,1.415
			c0.323,0.356,0.728,0.535,1.215,0.535c0.536,0,0.997-0.193,1.383-0.579l0.667,0.742
			C147.182,360.709,146.491,360.986,145.661,360.986z M143.912,357.111h3.296c-0.008-0.662-0.166-1.143-0.472-1.44
			c-0.306-0.297-0.665-0.446-1.075-0.446c-0.495,0-0.901,0.157-1.221,0.472C144.122,356.011,143.945,356.482,143.912,357.111z"/>
		<path fill="#FFFFFF" d="M149.006,360.835l2.151-3.346l-1.987-3.082h1.22l1.02,1.56c0.192,0.31,0.314,0.516,0.364,0.616
			c0.201-0.335,0.327-0.541,0.378-0.616l1.006-1.56h1.233l-2,3.082l2.163,3.346h-1.232l-1.183-1.824
			c-0.093-0.142-0.214-0.348-0.365-0.616c-0.075,0.151-0.196,0.356-0.364,0.616l-1.183,1.824H149.006z"/>
		<path fill="#FFFFFF" d="M157.674,360.986c-0.906,0-1.358-0.511-1.358-1.535v-4.088h-1.045v-0.956h1.045v-2.126l1.094-0.528v2.654
			h1.585v0.956h-1.585v3.724c0,0.285,0.046,0.503,0.139,0.654c0.092,0.151,0.269,0.226,0.528,0.226c0.285,0,0.604-0.113,0.956-0.339
			l-0.126,1.069C158.538,360.89,158.127,360.986,157.674,360.986z"/>
		<path fill="#FFFFFF" d="M164.529,360.835v-7.02h-1.472v-0.742c0.948,0,1.539-0.348,1.774-1.044h0.792v8.806H164.529z"/>
	</g>
	<rect x="221.466" y="342.141" fill="#84847B" width="72.456" height="28.859"/>
	<g>
		<path fill="#FFFFFF" d="M230.988,360.835v-8.806h1.095v7.749h4.327v1.057H230.988z"/>
		<path fill="#FFFFFF" d="M238.876,353.042c-0.134,0.13-0.298,0.195-0.49,0.195c-0.193,0-0.354-0.067-0.484-0.201
			c-0.13-0.134-0.195-0.293-0.195-0.478c0-0.193,0.067-0.358,0.201-0.497c0.135-0.139,0.294-0.208,0.479-0.208
			c0.192,0,0.356,0.069,0.49,0.208c0.135,0.138,0.201,0.304,0.201,0.497S239.01,352.912,238.876,353.042z M237.844,360.835v-6.428
			h1.095v6.428H237.844z"/>
		<path fill="#FFFFFF" d="M244.989,360.835v-3.887c0-0.579-0.124-1.004-0.371-1.277c-0.248-0.272-0.585-0.409-1.013-0.409
			c-0.99,0-1.484,0.554-1.484,1.661v3.912h-1.095v-6.428h1.095v0.654c0.394-0.537,0.947-0.805,1.66-0.805
			c0.755,0,1.327,0.229,1.717,0.686c0.391,0.458,0.585,1.189,0.585,2.195v3.698H244.989z"/>
		<path fill="#FFFFFF" d="M253.329,360.835h-1.195l-1.987-3.887l-0.943,0.981v2.906h-1.095v-8.566l1.095-0.516v4.869l2.088-2.214
			h1.309l-1.686,1.749L253.329,360.835z"/>
		<path fill="#FFFFFF" d="M256.398,360.986c-0.906,0-1.358-0.511-1.358-1.535v-4.088h-1.045v-0.956h1.045v-2.126l1.094-0.528v2.654
			h1.585v0.956h-1.585v3.724c0,0.285,0.046,0.503,0.139,0.654c0.092,0.151,0.269,0.226,0.528,0.226c0.285,0,0.604-0.113,0.956-0.339
			l-0.126,1.069C257.261,360.89,256.85,360.986,256.398,360.986z"/>
		<path fill="#FFFFFF" d="M261.719,360.986c-0.872,0-1.566-0.312-2.082-0.937c-0.516-0.625-0.773-1.436-0.773-2.434
			c0-1.048,0.26-1.87,0.779-2.466c0.521-0.595,1.212-0.893,2.076-0.893c0.771,0,1.406,0.258,1.905,0.774
			c0.499,0.516,0.749,1.276,0.749,2.283c0,0.235-0.013,0.478-0.038,0.73h-4.353c0.042,0.587,0.225,1.059,0.547,1.415
			c0.323,0.356,0.728,0.535,1.215,0.535c0.536,0,0.997-0.193,1.383-0.579l0.667,0.742
			C263.241,360.709,262.549,360.986,261.719,360.986z M259.97,357.111h3.296c-0.008-0.662-0.166-1.143-0.472-1.44
			c-0.306-0.297-0.665-0.446-1.075-0.446c-0.495,0-0.901,0.157-1.221,0.472C260.18,356.011,260.004,356.482,259.97,357.111z"/>
		<path fill="#FFFFFF" d="M265.065,360.835l2.151-3.346l-1.987-3.082h1.22l1.02,1.56c0.192,0.31,0.314,0.516,0.364,0.616
			c0.201-0.335,0.327-0.541,0.378-0.616l1.006-1.56h1.233l-2,3.082l2.163,3.346h-1.232l-1.183-1.824
			c-0.093-0.142-0.214-0.348-0.365-0.616c-0.075,0.151-0.196,0.356-0.364,0.616l-1.183,1.824H265.065z"/>
		<path fill="#FFFFFF" d="M273.733,360.986c-0.906,0-1.358-0.511-1.358-1.535v-4.088h-1.045v-0.956h1.045v-2.126l1.094-0.528v2.654
			h1.585v0.956h-1.585v3.724c0,0.285,0.046,0.503,0.139,0.654c0.092,0.151,0.269,0.226,0.528,0.226c0.285,0,0.604-0.113,0.956-0.339
			l-0.126,1.069C274.596,360.89,274.185,360.986,273.733,360.986z"/>
		<path fill="#FFFFFF" d="M279.494,360.835c0-0.554,0.079-1.059,0.238-1.516s0.391-0.857,0.692-1.202
			c0.302-0.344,0.604-0.633,0.905-0.868c0.303-0.235,0.663-0.474,1.082-0.717c0.386-0.234,0.688-0.434,0.906-0.598
			c0.218-0.163,0.421-0.383,0.609-0.66c0.189-0.277,0.283-0.57,0.283-0.88c0-0.428-0.157-0.784-0.472-1.069
			s-0.731-0.428-1.252-0.428c-0.973,0-1.597,0.432-1.874,1.295l-0.981-0.44c0.177-0.554,0.524-1.004,1.045-1.353
			c0.52-0.348,1.136-0.522,1.849-0.522c0.872,0,1.56,0.233,2.063,0.698c0.503,0.465,0.754,1.08,0.754,1.843
			c0,0.302-0.046,0.583-0.138,0.843c-0.093,0.26-0.204,0.482-0.334,0.667s-0.316,0.377-0.56,0.579
			c-0.243,0.201-0.459,0.363-0.647,0.484s-0.442,0.279-0.761,0.472c-0.621,0.36-1.109,0.717-1.466,1.069
			c-0.356,0.353-0.581,0.764-0.673,1.233h4.654v1.069H279.494z"/>
	</g>
	<rect x="242.294" y="199.859" fill="#84847B" width="78.753" height="28.859"/>
	<g>
		<path fill="#FFFFFF" d="M254.911,218.703c-2.104,0-3.157-1.153-3.157-3.459v-5.497h1.095v5.497c0,0.897,0.184,1.527,0.553,1.887
			s0.872,0.541,1.51,0.541s1.143-0.181,1.516-0.541s0.561-0.99,0.561-1.887v-5.497h1.094v5.497
			C258.081,217.55,257.024,218.703,254.911,218.703z M254.32,208.438c-0.135,0.134-0.298,0.201-0.491,0.201
			c-0.192,0-0.356-0.067-0.49-0.201s-0.201-0.298-0.201-0.491s0.067-0.356,0.201-0.491c0.134-0.134,0.298-0.201,0.49-0.201
			c0.193,0,0.356,0.067,0.491,0.201c0.134,0.134,0.201,0.298,0.201,0.491S254.454,208.304,254.32,208.438z M256.496,208.438
			c-0.134,0.134-0.298,0.201-0.49,0.201c-0.193,0-0.356-0.067-0.491-0.201c-0.134-0.134-0.201-0.298-0.201-0.491
			s0.067-0.356,0.201-0.491c0.135-0.134,0.298-0.201,0.491-0.201c0.192,0,0.356,0.067,0.49,0.201
			c0.134,0.134,0.201,0.298,0.201,0.491S256.629,208.304,256.496,208.438z"/>
		<path fill="#FFFFFF" d="M263.037,218.703c-0.612,0-1.161-0.234-1.647-0.705v0.554h-1.095v-8.566l1.095-0.516v3.208
			c0.428-0.47,0.964-0.705,1.61-0.705c0.805,0,1.45,0.298,1.937,0.893c0.486,0.596,0.729,1.417,0.729,2.466
			c0,1.082-0.232,1.914-0.697,2.497C264.503,218.412,263.859,218.703,263.037,218.703z M262.886,217.684
			c0.545,0,0.958-0.208,1.239-0.623c0.28-0.415,0.421-0.992,0.421-1.729c0-0.763-0.141-1.346-0.421-1.749
			c-0.281-0.403-0.694-0.604-1.239-0.604c-0.336,0-0.638,0.088-0.906,0.264c-0.269,0.176-0.465,0.374-0.591,0.591v2.981
			c0.159,0.269,0.373,0.48,0.642,0.635S262.585,217.684,262.886,217.684z"/>
		<path fill="#FFFFFF" d="M269.842,218.703c-0.872,0-1.566-0.312-2.082-0.937c-0.516-0.625-0.773-1.436-0.773-2.434
			c0-1.048,0.26-1.87,0.779-2.466c0.521-0.595,1.212-0.893,2.076-0.893c0.771,0,1.406,0.258,1.905,0.774
			c0.499,0.516,0.749,1.276,0.749,2.283c0,0.235-0.013,0.478-0.038,0.73h-4.353c0.042,0.587,0.225,1.059,0.547,1.415
			c0.323,0.356,0.728,0.535,1.215,0.535c0.536,0,0.997-0.193,1.383-0.579l0.667,0.742
			C271.364,218.426,270.672,218.703,269.842,218.703z M268.093,214.829h3.296c-0.008-0.662-0.166-1.143-0.472-1.44
			c-0.306-0.297-0.665-0.446-1.075-0.446c-0.495,0-0.901,0.157-1.221,0.472C268.303,213.728,268.127,214.2,268.093,214.829z"/>
		<path fill="#FFFFFF" d="M274.131,218.552v-6.428h1.095v0.843c0.302-0.662,0.809-0.994,1.521-0.994
			c0.403,0,0.734,0.109,0.994,0.327l-0.163,1.032c-0.269-0.185-0.575-0.277-0.919-0.277c-0.377,0-0.711,0.146-1,0.44
			c-0.289,0.294-0.434,0.772-0.434,1.434v3.623H274.131z"/>
		<path fill="#FFFFFF" d="M280.924,218.703c-0.461,0-0.899-0.099-1.314-0.295c-0.415-0.197-0.753-0.459-1.013-0.786l0.78-0.667
			c0.478,0.512,1.002,0.768,1.572,0.768c0.36,0,0.649-0.069,0.868-0.208c0.218-0.139,0.327-0.342,0.327-0.61
			c0-0.201-0.08-0.384-0.239-0.547c-0.159-0.163-0.323-0.285-0.49-0.365c-0.168-0.08-0.415-0.182-0.742-0.308
			c-0.654-0.243-1.149-0.516-1.484-0.817c-0.336-0.302-0.504-0.7-0.504-1.195c0-0.52,0.203-0.933,0.61-1.239
			c0.407-0.306,0.925-0.459,1.554-0.459c0.897,0,1.618,0.323,2.164,0.969l-0.755,0.629c-0.395-0.411-0.868-0.616-1.422-0.616
			c-0.327,0-0.587,0.062-0.78,0.188c-0.192,0.126-0.289,0.302-0.289,0.528c0,0.126,0.031,0.241,0.095,0.346
			c0.062,0.105,0.176,0.203,0.34,0.295c0.163,0.092,0.293,0.162,0.39,0.208c0.096,0.046,0.274,0.12,0.534,0.22
			c0.68,0.243,1.197,0.52,1.554,0.83c0.356,0.311,0.535,0.747,0.535,1.309c0,0.57-0.206,1.017-0.617,1.339
			C282.187,218.542,281.629,218.703,280.924,218.703z"/>
		<path fill="#FFFFFF" d="M287.214,218.703c-0.822,0-1.473-0.295-1.95-0.887c-0.479-0.591-0.717-1.415-0.717-2.472
			c0-1.057,0.24-1.883,0.723-2.479c0.482-0.595,1.147-0.893,1.994-0.893c1.141,0,1.891,0.499,2.252,1.497l-1.031,0.377
			c-0.219-0.57-0.621-0.855-1.208-0.855c-0.537,0-0.939,0.206-1.208,0.616c-0.269,0.411-0.402,0.99-0.402,1.736
			c0,0.738,0.134,1.31,0.402,1.717s0.658,0.61,1.17,0.61c0.671,0,1.107-0.319,1.309-0.956l1.019,0.339
			c-0.159,0.528-0.442,0.936-0.849,1.22C288.31,218.561,287.809,218.703,287.214,218.703z"/>
		<path fill="#FFFFFF" d="M291.214,218.552v-8.579l1.095-0.503v3.321c0.394-0.545,0.947-0.818,1.66-0.818
			c0.755,0,1.327,0.229,1.717,0.686c0.391,0.458,0.585,1.189,0.585,2.195v3.698h-1.094v-3.887c0-0.579-0.124-1.004-0.371-1.277
			c-0.248-0.272-0.585-0.409-1.013-0.409c-0.99,0-1.484,0.554-1.484,1.661v3.912H291.214z"/>
		<path fill="#FFFFFF" d="M298.296,218.552v-6.428h1.095v0.843c0.302-0.662,0.809-0.994,1.521-0.994
			c0.403,0,0.734,0.109,0.994,0.327l-0.163,1.032c-0.269-0.185-0.575-0.277-0.919-0.277c-0.377,0-0.711,0.146-1,0.44
			c-0.289,0.294-0.434,0.772-0.434,1.434v3.623H298.296z"/>
		<path fill="#FFFFFF" d="M304.171,210.759c-0.134,0.13-0.298,0.195-0.49,0.195c-0.193,0-0.354-0.067-0.484-0.201
			c-0.13-0.134-0.195-0.293-0.195-0.478c0-0.193,0.067-0.358,0.201-0.497c0.135-0.139,0.294-0.208,0.479-0.208
			c0.192,0,0.356,0.069,0.49,0.208c0.135,0.138,0.201,0.304,0.201,0.497S304.306,210.629,304.171,210.759z M303.14,218.552v-6.428
			h1.095v6.428H303.14z"/>
		<path fill="#FFFFFF" d="M307.781,213.08v5.472h-1.094v-5.472h-0.994v-0.956h0.994v-1.069c0-0.52,0.134-0.893,0.402-1.119
			c0.269-0.227,0.6-0.34,0.994-0.34c0.419,0,0.817,0.101,1.194,0.302v0.918c-0.344-0.159-0.649-0.239-0.918-0.239
			c-0.235,0-0.39,0.059-0.466,0.176c-0.075,0.118-0.113,0.281-0.113,0.491v0.88h1.497v0.956H307.781z"/>
		<path fill="#FFFFFF" d="M312.348,218.703c-0.906,0-1.358-0.511-1.358-1.535v-4.088h-1.045v-0.956h1.045v-2.126l1.094-0.528v2.654
			h1.585v0.956h-1.585v3.724c0,0.285,0.046,0.503,0.139,0.654c0.092,0.151,0.269,0.226,0.528,0.226c0.285,0,0.604-0.113,0.956-0.339
			l-0.126,1.069C313.212,218.607,312.8,218.703,312.348,218.703z"/>
	</g>
	<rect x="330.504" y="243.217" fill="#84847B" width="78.753" height="28.859"/>
	<g>
		<path fill="#FFFFFF" d="M343.007,254.149v7.762h-1.094v-7.762h-2.453v-1.044h6v1.044H343.007z"/>
		<path fill="#FFFFFF" d="M348.581,262.062c-0.872,0-1.566-0.312-2.082-0.937c-0.516-0.625-0.773-1.436-0.773-2.434
			c0-1.048,0.26-1.87,0.779-2.466c0.521-0.595,1.212-0.893,2.076-0.893c0.771,0,1.406,0.258,1.905,0.774
			c0.499,0.516,0.749,1.276,0.749,2.283c0,0.235-0.013,0.478-0.038,0.73h-4.353c0.042,0.587,0.225,1.059,0.547,1.415
			c0.323,0.356,0.728,0.535,1.215,0.535c0.536,0,0.997-0.193,1.383-0.579l0.667,0.742
			C350.102,261.785,349.411,262.062,348.581,262.062z M346.832,258.188h3.296c-0.008-0.662-0.166-1.143-0.472-1.44
			c-0.306-0.297-0.665-0.446-1.075-0.446c-0.495,0-0.901,0.157-1.221,0.472C347.042,257.087,346.865,257.559,346.832,258.188z"/>
		<path fill="#FFFFFF" d="M351.926,261.911l2.151-3.346l-1.987-3.082h1.22l1.02,1.56c0.192,0.31,0.314,0.516,0.364,0.616
			c0.201-0.335,0.327-0.541,0.378-0.616l1.006-1.56h1.233l-2,3.082l2.163,3.346h-1.232l-1.183-1.824
			c-0.093-0.142-0.214-0.348-0.365-0.616c-0.075,0.151-0.196,0.356-0.364,0.616l-1.183,1.824H351.926z"/>
		<path fill="#FFFFFF" d="M360.593,262.062c-0.906,0-1.358-0.511-1.358-1.535v-4.088h-1.045v-0.956h1.045v-2.126l1.094-0.528v2.654
			h1.585v0.956h-1.585v3.724c0,0.285,0.046,0.503,0.139,0.654c0.092,0.151,0.269,0.226,0.528,0.226c0.285,0,0.604-0.113,0.956-0.339
			l-0.126,1.069C361.457,261.966,361.046,262.062,360.593,262.062z"/>
		<path fill="#FFFFFF" d="M364.606,254.118c-0.134,0.13-0.298,0.195-0.49,0.195c-0.193,0-0.354-0.067-0.484-0.201
			c-0.13-0.134-0.195-0.293-0.195-0.478c0-0.193,0.067-0.358,0.201-0.497c0.135-0.139,0.294-0.208,0.479-0.208
			c0.192,0,0.356,0.069,0.49,0.208c0.135,0.138,0.201,0.304,0.201,0.497S364.741,253.988,364.606,254.118z M363.575,261.911v-6.428
			h1.095v6.428H363.575z"/>
		<path fill="#FFFFFF" d="M370.72,261.911v-3.887c0-0.579-0.124-1.004-0.371-1.277c-0.248-0.272-0.585-0.409-1.013-0.409
			c-0.99,0-1.484,0.554-1.484,1.661v3.912h-1.095v-6.428h1.095v0.654c0.394-0.537,0.947-0.805,1.66-0.805
			c0.755,0,1.327,0.229,1.717,0.686c0.391,0.458,0.585,1.189,0.585,2.195v3.698H370.72z"/>
		<path fill="#FFFFFF" d="M373.839,261.911v-8.579l1.095-0.503v3.321c0.394-0.545,0.947-0.818,1.66-0.818
			c0.755,0,1.327,0.229,1.717,0.686c0.391,0.458,0.585,1.189,0.585,2.195v3.698h-1.094v-3.887c0-0.579-0.124-1.004-0.371-1.277
			c-0.248-0.272-0.585-0.409-1.013-0.409c-0.99,0-1.484,0.554-1.484,1.661v3.912H373.839z"/>
		<path fill="#FFFFFF" d="M384.607,261.911v-0.591c-0.528,0.495-1.136,0.742-1.823,0.742c-0.68,0-1.223-0.187-1.63-0.56
			c-0.406-0.373-0.609-0.908-0.609-1.604c0-0.696,0.23-1.224,0.691-1.585c0.461-0.36,1.031-0.541,1.711-0.541
			c0.62,0,1.174,0.138,1.66,0.415v-0.453c0-0.537-0.119-0.912-0.358-1.126c-0.238-0.214-0.585-0.321-1.037-0.321
			c-0.646,0-1.271,0.214-1.875,0.642l-0.314-0.918c0.688-0.453,1.464-0.679,2.327-0.679c1.526,0,2.29,0.772,2.29,2.314v4.265
			H384.607z M382.947,261.093c0.629,0,1.183-0.281,1.66-0.843v-1.107c-0.461-0.285-0.964-0.428-1.509-0.428
			c-0.445,0-0.81,0.101-1.095,0.302c-0.285,0.201-0.428,0.495-0.428,0.88c0,0.361,0.119,0.65,0.358,0.868
			C382.173,260.984,382.51,261.093,382.947,261.093z"/>
		<path fill="#FFFFFF" d="M387.601,261.911v-8.566l1.094-0.516v9.083H387.601z"/>
		<path fill="#FFFFFF" d="M392.57,262.062c-0.906,0-1.358-0.511-1.358-1.535v-4.088h-1.045v-0.956h1.045v-2.126l1.094-0.528v2.654
			h1.585v0.956h-1.585v3.724c0,0.285,0.046,0.503,0.139,0.654c0.092,0.151,0.269,0.226,0.528,0.226c0.285,0,0.604-0.113,0.956-0.339
			l-0.126,1.069C393.433,261.966,393.022,262.062,392.57,262.062z"/>
	</g>
	<g>
		<path fill="#84847B" d="M139.761,149.502v-3.899c0-1.115-0.432-1.674-1.296-1.674c-0.411,0-0.744,0.157-1,0.472
			s-0.384,0.728-0.384,1.239v3.862h-1.094v-3.899c0-1.115-0.428-1.674-1.283-1.674c-0.428,0-0.766,0.149-1.013,0.447
			c-0.248,0.298-0.371,0.702-0.371,1.214v3.912h-1.095v-6.429h1.095v0.604c0.377-0.504,0.938-0.755,1.686-0.755
			c0.36,0,0.693,0.082,1,0.245c0.306,0.163,0.547,0.396,0.724,0.698c0.41-0.629,1.031-0.943,1.861-0.943
			c0.671,0,1.216,0.205,1.636,0.616c0.419,0.411,0.629,0.994,0.629,1.749v4.214H139.761z"/>
		<path fill="#84847B" d="M145.346,149.652c-0.872,0-1.566-0.312-2.082-0.937s-0.773-1.437-0.773-2.435
			c0-1.048,0.26-1.87,0.779-2.466c0.521-0.595,1.212-0.893,2.076-0.893c0.771,0,1.406,0.258,1.905,0.773s0.749,1.276,0.749,2.283
			c0,0.235-0.013,0.478-0.038,0.729h-4.353c0.042,0.587,0.225,1.059,0.547,1.415c0.323,0.356,0.728,0.535,1.215,0.535
			c0.536,0,0.997-0.193,1.383-0.579l0.667,0.742C146.868,149.376,146.176,149.652,145.346,149.652z M143.597,145.778h3.296
			c-0.008-0.662-0.166-1.143-0.472-1.44s-0.665-0.446-1.075-0.446c-0.495,0-0.901,0.157-1.221,0.472
			C143.807,144.678,143.63,145.149,143.597,145.778z"/>
		<path fill="#84847B" d="M151.247,149.652c-0.906,0-1.358-0.511-1.358-1.534v-4.089h-1.045v-0.956h1.045v-2.126l1.094-0.528v2.654
			h1.585v0.956h-1.585v3.724c0,0.285,0.046,0.504,0.139,0.654c0.092,0.151,0.269,0.227,0.528,0.227c0.285,0,0.604-0.113,0.956-0.34
			l-0.126,1.069C152.11,149.557,151.699,149.652,151.247,149.652z"/>
		<path fill="#84847B" d="M157.775,149.502v-0.592c-0.528,0.495-1.136,0.742-1.823,0.742c-0.68,0-1.223-0.187-1.63-0.56
			c-0.406-0.373-0.609-0.907-0.609-1.604s0.23-1.225,0.691-1.585s1.031-0.541,1.711-0.541c0.62,0,1.174,0.138,1.66,0.415v-0.453
			c0-0.536-0.119-0.912-0.358-1.126c-0.238-0.214-0.585-0.32-1.037-0.32c-0.646,0-1.271,0.214-1.875,0.642l-0.314-0.919
			c0.688-0.452,1.464-0.679,2.327-0.679c1.526,0,2.29,0.771,2.29,2.314v4.265H157.775z M156.115,148.684
			c0.629,0,1.183-0.28,1.66-0.843v-1.106c-0.461-0.285-0.964-0.428-1.509-0.428c-0.445,0-0.81,0.101-1.095,0.302
			s-0.428,0.495-0.428,0.881c0,0.36,0.119,0.649,0.358,0.868C155.341,148.575,155.678,148.684,156.115,148.684z"/>
	</g>
	
		<rect x="7.411" y="131.003" fill="none" stroke="#84847B" stroke-width="3" stroke-miterlimit="10" width="71.037" height="28.859"/>
	
		<rect x="122.892" y="131.003" fill="none" stroke="#84847B" stroke-width="3" stroke-miterlimit="10" width="71.037" height="28.859"/>
	<g>
		<g>
			<path fill="#84847B" d="M333.3,90.293c-0.612,0-1.161-0.234-1.647-0.705v0.554h-1.095v-8.566l1.095-0.516v3.208
				c0.428-0.47,0.964-0.705,1.61-0.705c0.805,0,1.45,0.298,1.937,0.893c0.486,0.596,0.729,1.417,0.729,2.466
				c0,1.082-0.232,1.914-0.697,2.497C334.766,90.002,334.123,90.293,333.3,90.293z M333.15,89.274c0.545,0,0.958-0.208,1.239-0.623
				c0.28-0.415,0.421-0.992,0.421-1.729c0-0.763-0.141-1.346-0.421-1.749c-0.281-0.403-0.694-0.604-1.239-0.604
				c-0.336,0-0.638,0.088-0.906,0.264c-0.269,0.176-0.465,0.374-0.591,0.591v2.981c0.159,0.269,0.373,0.48,0.642,0.635
				S332.848,89.274,333.15,89.274z"/>
			<path fill="#84847B" d="M342.169,89.394c-0.512,0.6-1.203,0.899-2.075,0.899s-1.564-0.297-2.076-0.893
				c-0.511-0.595-0.767-1.417-0.767-2.465s0.256-1.873,0.767-2.472c0.512-0.6,1.204-0.899,2.076-0.899s1.563,0.298,2.075,0.893
				c0.512,0.596,0.768,1.417,0.768,2.466S342.68,88.794,342.169,89.394z M338.816,88.651c0.307,0.415,0.732,0.623,1.277,0.623
				s0.971-0.208,1.276-0.623c0.307-0.415,0.46-0.992,0.46-1.729c0-0.729-0.153-1.304-0.46-1.724
				c-0.306-0.419-0.731-0.629-1.276-0.629s-0.971,0.208-1.277,0.623c-0.306,0.416-0.459,0.996-0.459,1.743
				C338.357,87.664,338.51,88.236,338.816,88.651z"/>
			<path fill="#84847B" d="M346.924,90.293c-0.813,0-1.46-0.302-1.938-0.906c-0.479-0.604-0.717-1.425-0.717-2.465
				c0-1.048,0.24-1.87,0.723-2.466c0.482-0.595,1.126-0.893,1.932-0.893c0.629,0,1.17,0.201,1.622,0.604v-2.591l1.095-0.516v9.083
				h-1.095v-0.503C348.128,90.075,347.587,90.293,346.924,90.293z M347.075,89.274c0.638,0,1.128-0.289,1.472-0.868v-3.019
				c-0.344-0.545-0.834-0.818-1.472-0.818c-0.545,0-0.964,0.204-1.258,0.61s-0.44,0.987-0.44,1.742c0,0.679,0.153,1.241,0.459,1.686
				C346.142,89.052,346.555,89.274,347.075,89.274z"/>
			<path fill="#84847B" d="M352.484,92.583l0.981-2.604l-2.378-6.265h1.095l1.598,4.378c0.059,0.143,0.125,0.348,0.201,0.616
				c0.075-0.268,0.143-0.474,0.201-0.616l1.623-4.378h1.119l-3.334,8.869H352.484z"/>
		</g>
		
			<rect x="321.225" y="71.643" fill="none" stroke="#84847B" stroke-width="3" stroke-miterlimit="10" width="71.037" height="28.859"/>
	</g>
	<g>
		<g>
			<path fill="#84847B" d="M176.958,218.358v-0.616c-0.394,0.511-0.935,0.767-1.622,0.767c-0.78,0-1.365-0.227-1.755-0.679
				c-0.391-0.453-0.585-1.183-0.585-2.189v-3.711h1.094v3.875c0,0.579,0.124,1.004,0.371,1.277c0.248,0.272,0.585,0.409,1.013,0.409
				c0.99,0,1.484-0.553,1.484-1.66v-3.9h1.095v6.428H176.958z"/>
			<path fill="#84847B" d="M180.204,218.358v-8.566l1.094-0.516v9.083H180.204z"/>
		</g>
		
			<rect x="163.725" y="199.859" fill="none" stroke="#84847B" stroke-width="3" stroke-miterlimit="10" width="71.037" height="28.859"/>
	</g>
	<g>
		<path fill="#84847B" d="M230.863,277.28v-8.566l1.094-0.516v9.083H230.863z"/>
		<path fill="#84847B" d="M235.139,269.487c-0.134,0.13-0.298,0.195-0.49,0.195c-0.193,0-0.354-0.067-0.484-0.201
			c-0.13-0.134-0.195-0.293-0.195-0.478c0-0.193,0.067-0.358,0.201-0.497c0.135-0.139,0.294-0.208,0.479-0.208
			c0.192,0,0.356,0.069,0.49,0.208c0.135,0.138,0.201,0.304,0.201,0.497S235.274,269.357,235.139,269.487z M234.108,277.28v-6.428
			h1.095v6.428H234.108z"/>
	</g>
	
		<rect x="221.466" y="258.781" fill="none" stroke="#84847B" stroke-width="3" stroke-miterlimit="10" width="71.037" height="28.859"/>
	<g>
		<path fill="#84847B" d="M234.485,321.021v-0.591c-0.528,0.495-1.136,0.742-1.823,0.742c-0.68,0-1.223-0.187-1.63-0.56
			c-0.406-0.373-0.609-0.908-0.609-1.604c0-0.696,0.23-1.224,0.691-1.585c0.461-0.36,1.031-0.541,1.711-0.541
			c0.62,0,1.174,0.138,1.66,0.415v-0.453c0-0.537-0.119-0.912-0.358-1.126c-0.238-0.214-0.585-0.321-1.037-0.321
			c-0.646,0-1.271,0.214-1.875,0.642l-0.314-0.918c0.688-0.453,1.464-0.679,2.327-0.679c1.526,0,2.29,0.772,2.29,2.314v4.265
			H234.485z M232.825,320.204c0.629,0,1.183-0.281,1.66-0.843v-1.107c-0.461-0.285-0.964-0.428-1.509-0.428
			c-0.445,0-0.81,0.101-1.095,0.302c-0.285,0.201-0.428,0.495-0.428,0.88c0,0.361,0.119,0.65,0.358,0.868
			C232.051,320.095,232.388,320.204,232.825,320.204z"/>
	</g>
	
		<rect x="221.466" y="302.522" fill="none" stroke="#84847B" stroke-width="3" stroke-miterlimit="10" width="71.037" height="28.859"/>
	<g>
		<path fill="#84847B" d="M114.804,277.28v-8.566l1.094-0.516v9.083H114.804z"/>
		<path fill="#84847B" d="M119.081,269.487c-0.134,0.13-0.298,0.195-0.49,0.195c-0.193,0-0.354-0.067-0.484-0.201
			c-0.13-0.134-0.195-0.293-0.195-0.478c0-0.193,0.067-0.358,0.201-0.497c0.135-0.139,0.294-0.208,0.479-0.208
			c0.192,0,0.356,0.069,0.49,0.208c0.135,0.138,0.201,0.304,0.201,0.497S119.215,269.357,119.081,269.487z M118.049,277.28v-6.428
			h1.095v6.428H118.049z"/>
	</g>
	
		<rect x="105.407" y="258.781" fill="none" stroke="#84847B" stroke-width="3" stroke-miterlimit="10" width="71.037" height="28.859"/>
	<g>
		<path fill="#84847B" d="M118.426,321.021v-0.591c-0.528,0.495-1.136,0.742-1.823,0.742c-0.68,0-1.223-0.187-1.63-0.56
			c-0.406-0.373-0.609-0.908-0.609-1.604c0-0.696,0.23-1.224,0.691-1.585c0.461-0.36,1.031-0.541,1.711-0.541
			c0.62,0,1.174,0.138,1.66,0.415v-0.453c0-0.537-0.119-0.912-0.358-1.126c-0.238-0.214-0.585-0.321-1.037-0.321
			c-0.646,0-1.271,0.214-1.875,0.642l-0.314-0.918c0.688-0.453,1.464-0.679,2.327-0.679c1.526,0,2.29,0.772,2.29,2.314v4.265
			H118.426z M116.766,320.204c0.629,0,1.183-0.281,1.66-0.843v-1.107c-0.461-0.285-0.964-0.428-1.509-0.428
			c-0.445,0-0.81,0.101-1.095,0.302c-0.285,0.201-0.428,0.495-0.428,0.88c0,0.361,0.119,0.65,0.358,0.868
			C115.993,320.095,116.33,320.204,116.766,320.204z"/>
	</g>
	
		<rect x="105.407" y="302.522" fill="none" stroke="#84847B" stroke-width="3" stroke-miterlimit="10" width="71.037" height="28.859"/>
	<g>
		<path fill="#84847B" d="M339.837,218.358v-8.579l1.095-0.503v3.321c0.394-0.545,0.947-0.818,1.66-0.818
			c0.755,0,1.327,0.229,1.717,0.686c0.391,0.458,0.585,1.189,0.585,2.195v3.698H343.8v-3.887c0-0.579-0.124-1.004-0.371-1.277
			c-0.248-0.272-0.585-0.409-1.013-0.409c-0.99,0-1.484,0.554-1.484,1.661v3.912H339.837z"/>
		<path fill="#84847B" d="M347.85,218.358v-7.02h-1.472v-0.742c0.948,0,1.539-0.348,1.774-1.044h0.792v8.806H347.85z"/>
	</g>
	<g>
		<path fill="#84847B" d="M439.06,218.509c-0.671,0-1.22-0.251-1.647-0.755v2.629l-1.095,0.516v-8.969h1.095v0.541
			c0.461-0.461,1.011-0.692,1.647-0.692c0.813,0,1.46,0.302,1.938,0.906s0.717,1.421,0.717,2.453c0,1.048-0.243,1.872-0.729,2.472
			S439.857,218.509,439.06,218.509z M438.922,217.49c0.536,0,0.949-0.203,1.238-0.61c0.29-0.407,0.435-0.987,0.435-1.742
			c0-0.713-0.149-1.283-0.446-1.711c-0.298-0.428-0.707-0.642-1.227-0.642c-0.68,0-1.183,0.29-1.51,0.868v2.969
			C437.857,217.201,438.36,217.49,438.922,217.49z"/>
	</g>
	<g>
		<path fill="#84847B" d="M437.362,253.923c-0.134,0.13-0.298,0.195-0.49,0.195c-0.193,0-0.354-0.067-0.484-0.201
			c-0.13-0.134-0.195-0.293-0.195-0.478c0-0.193,0.067-0.358,0.201-0.497c0.135-0.139,0.294-0.208,0.479-0.208
			c0.192,0,0.356,0.069,0.49,0.208c0.135,0.138,0.201,0.304,0.201,0.497S437.497,253.793,437.362,253.923z M436.331,261.716v-6.428
			h1.095v6.428H436.331z"/>
		<path fill="#84847B" d="M447.048,261.716v-3.899c0-1.115-0.432-1.673-1.296-1.673c-0.411,0-0.744,0.157-1,0.472
			s-0.384,0.728-0.384,1.239v3.862h-1.094v-3.899c0-1.115-0.428-1.673-1.283-1.673c-0.428,0-0.766,0.149-1.013,0.447
			c-0.248,0.298-0.371,0.702-0.371,1.214v3.912h-1.095v-6.428h1.095v0.604c0.377-0.503,0.938-0.755,1.686-0.755
			c0.36,0,0.693,0.082,1,0.246c0.306,0.163,0.547,0.396,0.724,0.698c0.41-0.629,1.031-0.943,1.861-0.943
			c0.671,0,1.216,0.206,1.636,0.617c0.419,0.411,0.629,0.994,0.629,1.749v4.214H447.048z"/>
		<path fill="#84847B" d="M452.13,264.32l-0.529-0.855c0.932-0.05,1.575-0.212,1.932-0.484s0.534-0.644,0.534-1.113v-0.78
			c-0.377,0.52-0.931,0.78-1.66,0.78c-0.755,0-1.382-0.293-1.881-0.88s-0.748-1.417-0.748-2.491c0-1.04,0.245-1.86,0.735-2.459
			c0.491-0.6,1.135-0.899,1.932-0.899c0.67,0,1.211,0.227,1.622,0.679v-0.528h1.095v6.164c0,0.981-0.263,1.69-0.786,2.126
			C453.851,264.014,453.103,264.262,452.13,264.32z M452.633,260.848c0.268,0,0.534-0.082,0.799-0.245
			c0.264-0.164,0.476-0.384,0.635-0.661v-2.943c-0.15-0.251-0.364-0.457-0.642-0.616c-0.276-0.159-0.541-0.239-0.792-0.239
			c-0.57,0-1.005,0.204-1.302,0.61c-0.298,0.407-0.447,0.987-0.447,1.742c0,0.729,0.162,1.304,0.484,1.723
			C451.692,260.639,452.113,260.848,452.633,260.848z"/>
	</g>
	
		<rect x="426.984" y="243.217" fill="none" stroke="#84847B" stroke-width="3" stroke-miterlimit="10" width="71.037" height="28.859"/>
	<polyline fill="none" stroke="#000000" stroke-width="3" stroke-miterlimit="10" points="414.484,176.25 366.022,176.25 
		366.022,199.859 	"/>
	
		<rect x="330.504" y="199.859" fill="none" stroke="#84847B" stroke-width="3" stroke-miterlimit="10" width="71.037" height="28.859"/>
</g>
</svg>
