<?xml version="1.0" encoding="utf-8"?>
<!-- Generator: Adobe Illustrator 22.0.1, SVG Export Plug-In . SVG Version: 6.00 Build 0)  -->
<svg version="1.1" xmlns="http://www.w3.org/2000/svg" xmlns:xlink="http://www.w3.org/1999/xlink" x="0px" y="0px"
	 viewBox="0 0 500 224.644" enable-background="new 0 0 500 224.644" xml:space="preserve">
<g id="Ebene_2">
	
		<rect x="5.268" y="5.258" fill="none" stroke="#000000" stroke-width="2" stroke-miterlimit="10" width="113.325" height="160.742"/>
	
		<rect x="15.166" y="16.039" fill="none" stroke="#000000" stroke-width="2" stroke-miterlimit="10" width="93.527" height="35.48"/>
	
		<rect x="142.706" y="77.363" fill="none" stroke="#000000" stroke-width="2" stroke-miterlimit="10" width="97.294" height="26.637"/>
	
		<rect x="15.166" y="60.28" fill="none" stroke="#000000" stroke-width="2" stroke-miterlimit="10" width="26.063" height="26.063"/>
	
		<rect x="15.166" y="95.103" fill="none" stroke="#000000" stroke-width="2" stroke-miterlimit="10" width="26.063" height="26.063"/>
	
		<rect x="15.166" y="129.926" fill="none" stroke="#000000" stroke-width="2" stroke-miterlimit="10" width="26.063" height="26.063"/>
	
		<rect x="48.899" y="60.28" fill="none" stroke="#000000" stroke-width="2" stroke-miterlimit="10" width="26.063" height="26.063"/>
	
		<rect x="48.899" y="95.103" fill="none" stroke="#000000" stroke-width="2" stroke-miterlimit="10" width="26.063" height="26.063"/>
	
		<rect x="48.899" y="129.926" fill="none" stroke="#000000" stroke-width="2" stroke-miterlimit="10" width="26.063" height="26.063"/>
	
		<rect x="82.631" y="60.28" fill="none" stroke="#000000" stroke-width="2" stroke-miterlimit="10" width="26.063" height="26.063"/>
	
		<rect x="82.631" y="95.103" fill="none" stroke="#000000" stroke-width="2" stroke-miterlimit="10" width="26.063" height="26.063"/>
	
		<rect x="82.631" y="129.926" fill="none" stroke="#000000" stroke-width="2" stroke-miterlimit="10" width="26.063" height="26.063"/>
	<g>
		<path d="M152.855,97.748V86.937h-2.267v-1.143c1.46,0,2.371-0.536,2.733-1.608h1.22v13.563H152.855z"/>
		<path d="M160.43,97.748c0.026-2.286,0.349-4.382,0.969-6.287c0.621-1.905,1.64-3.807,3.062-5.706h-6.743v-1.57h8.622v1.531
			c-0.814,0.93-1.508,1.947-2.082,3.052c-0.575,1.104-1.004,2.199-1.288,3.284c-0.285,1.085-0.492,2.083-0.621,2.994
			c-0.129,0.911-0.194,1.812-0.194,2.703H160.43z"/>
		<path d="M170.282,90.628c-0.265,0.265-0.584,0.397-0.959,0.397s-0.691-0.132-0.95-0.397c-0.258-0.265-0.387-0.572-0.387-0.921
			c0-0.361,0.129-0.675,0.387-0.94c0.259-0.264,0.575-0.397,0.95-0.397s0.694,0.136,0.959,0.407c0.265,0.271,0.397,0.581,0.397,0.93
			C170.68,90.056,170.547,90.363,170.282,90.628z M170.282,97.603c-0.265,0.265-0.584,0.397-0.959,0.397s-0.691-0.132-0.95-0.397
			c-0.258-0.264-0.387-0.571-0.387-0.92c0-0.362,0.129-0.675,0.387-0.94c0.259-0.265,0.575-0.397,0.95-0.397
			s0.694,0.135,0.959,0.407c0.265,0.271,0.397,0.581,0.397,0.93C170.68,97.031,170.547,97.338,170.282,97.603z"/>
		<path d="M178.933,97.748v-3.371h-6.936v-1.008l7.033-9.184h1.588v8.68h1.918v1.511h-1.918v3.371H178.933z M178.933,92.865v-6.296
			l-4.728,6.296H178.933z"/>
		<path d="M189.182,97.98c-1.008,0-1.886-0.148-2.635-0.445c-0.75-0.297-1.319-0.646-1.705-1.047l1.008-1.298
			c0.942,0.827,2.047,1.24,3.312,1.24c0.957,0,1.747-0.291,2.373-0.872c0.627-0.581,0.94-1.304,0.94-2.17
			c0-0.853-0.255-1.543-0.765-2.073c-0.511-0.529-1.179-0.794-2.006-0.794c-1.162,0-2.073,0.368-2.732,1.104l-1.666-0.581
			l0.795-6.859h7.245v1.57h-5.773l-0.523,4.088c0.775-0.62,1.724-0.93,2.848-0.93c1.291,0,2.338,0.42,3.138,1.259
			s1.201,1.873,1.201,3.1c0,1.317-0.468,2.431-1.405,3.342C191.897,97.525,190.68,97.98,189.182,97.98z"/>
		<path d="M206.792,97.98c-3.243,0-4.863-1.776-4.863-5.328v-8.467h1.685v8.467c0,1.382,0.284,2.351,0.853,2.906
			c0.569,0.556,1.343,0.833,2.325,0.833c0.982,0,1.76-0.277,2.334-0.833c0.575-0.555,0.862-1.524,0.862-2.906v-8.467h1.686v8.467
			C211.675,96.205,210.048,97.98,206.792,97.98z"/>
		<path d="M215.085,97.748V84.534l1.685-0.775v5.115c0.608-0.84,1.459-1.259,2.558-1.259c1.162,0,2.043,0.352,2.644,1.056
			c0.601,0.704,0.901,1.831,0.901,3.381v5.696h-1.685v-5.987c0-0.892-0.19-1.547-0.571-1.967c-0.382-0.42-0.901-0.63-1.56-0.63
			c-1.524,0-2.287,0.853-2.287,2.557v6.026H215.085z"/>
		<path d="M225.993,97.748v-9.9h1.685v1.298c0.465-1.02,1.246-1.531,2.345-1.531c0.62,0,1.129,0.168,1.53,0.504l-0.252,1.589
			c-0.414-0.284-0.885-0.426-1.414-0.426c-0.581,0-1.095,0.226-1.54,0.678c-0.446,0.452-0.669,1.188-0.669,2.209v5.58H225.993z"/>
	</g>
</g>
<g id="Ebene_1">
</g>
</svg>
