<?xml version="1.0" encoding="utf-8"?>
<!-- Generator: Adobe Illustrator 22.0.1, SVG Export Plug-In . SVG Version: 6.00 Build 0)  -->
<svg version="1.1" xmlns="http://www.w3.org/2000/svg" xmlns:xlink="http://www.w3.org/1999/xlink" x="0px" y="0px"
	 viewBox="0 0 500 500" enable-background="new 0 0 500 500" xml:space="preserve">
<g id="Ebene_2">
	<rect x="14" y="12" fill="#EDEDED" width="154" height="84"/>
	<rect x="242" y="288" fill="#EDEDED" width="154" height="84"/>
	<polyline fill="none" stroke="#000000" stroke-width="3" stroke-miterlimit="10" points="205.5,48.5 318.5,48.5 318.5,104.5 	"/>
	<polygon fill="none" stroke="#000000" stroke-width="3" stroke-miterlimit="10" points="307.5,104.5 329.5,104.5 318.5,118.5 	"/>
	<line fill="none" stroke="#000000" stroke-width="3" stroke-miterlimit="10" x1="317.5" y1="206.5" x2="317.5" y2="246.5"/>
	<polygon fill="none" stroke="#000000" stroke-width="3" stroke-miterlimit="10" points="306.5,246.5 328.5,246.5 317.5,260.5 	"/>
	<g>
		<path fill="none" stroke="#000000" stroke-width="3" stroke-miterlimit="10" d="M81.569,115.643c0-3.849,0-7.045,0-10.673
			c-25.708,0-51.211,0-76.982,0c0-33.785,0-67.134,0-100.826c57.169,0,114.307,0,171.855,0c0,33.386,0,66.826,0,100.657
			c-26.583,0-53.136,0-80.025,0c0,3.679,0,6.973,0,10.843c9.792,0,19.5,0.033,29.207-0.012c6.353-0.029,11.587,2.021,14.946,7.713
			c0.338,0.573,0.419,1.297,0.737,2.333c-35.066,0-69.762,0-104.618,0c2.288-6.632,7.21-9.919,14.862-10.01
			c8.427-0.1,16.856-0.024,25.284-0.025C78.287,115.643,79.74,115.643,81.569,115.643z M13.822,12.478c0,28.262,0,56.249,0,84.254
			c51.557,0,102.793,0,153.967,0c0-28.289,0-56.273,0-84.254C116.262,12.478,65.154,12.478,13.822,12.478z"/>
	</g>
	<g>
		<path fill="none" stroke="#000000" stroke-width="3" stroke-miterlimit="10" d="M310.598,391.465c0-3.849,0-7.045,0-10.673
			c-25.708,0-51.211,0-76.982,0c0-33.785,0-67.134,0-100.826c57.169,0,114.307,0,171.855,0c0,33.386,0,66.826,0,100.657
			c-26.583,0-53.137,0-80.025,0c0,3.679,0,6.973,0,10.843c9.792,0,19.5,0.033,29.207-0.012c6.353-0.029,11.587,2.021,14.946,7.713
			c0.338,0.573,0.419,1.297,0.737,2.333c-35.066,0-69.762,0-104.618,0c2.288-6.632,7.21-9.919,14.862-10.01
			c8.427-0.1,16.856-0.024,25.284-0.025C307.316,391.465,308.768,391.465,310.598,391.465z M242.851,288.3
			c0,28.262,0,56.249,0,84.254c51.557,0,102.793,0,153.967,0c0-28.289,0-56.273,0-84.254C345.291,288.3,294.183,288.3,242.851,288.3
			z"/>
	</g>
	<polygon fill="none" stroke="#000000" stroke-width="3" stroke-miterlimit="10" points="334.112,167.5 296.5,129.888 
		296.5,184.216 309.037,171.679 319.485,192.575 325.754,188.396 315.306,167.5 	"/>
	<circle cx="90" cy="54" r="9"/>
	<circle fill="#575756" cx="320" cy="331" r="30"/>
	<g>
		<path d="M348.174,166.386v-4.017c0-0.598-0.128-1.038-0.384-1.319c-0.255-0.282-0.604-0.422-1.046-0.422
			c-1.022,0-1.534,0.572-1.534,1.716v4.043h-1.131v-6.643h1.131v0.676c0.407-0.555,0.979-0.832,1.716-0.832
			c0.78,0,1.372,0.236,1.774,0.708c0.403,0.472,0.604,1.229,0.604,2.269v3.822H348.174z"/>
		<path d="M355.206,166.386v-0.611c-0.546,0.511-1.174,0.767-1.885,0.767c-0.702,0-1.263-0.192-1.684-0.578
			c-0.42-0.386-0.63-0.938-0.63-1.658c0-0.719,0.238-1.265,0.715-1.638s1.065-0.559,1.768-0.559c0.642,0,1.214,0.143,1.716,0.429
			v-0.468c0-0.555-0.123-0.942-0.37-1.164s-0.604-0.332-1.072-0.332c-0.668,0-1.313,0.221-1.938,0.663l-0.325-0.949
			c0.711-0.468,1.513-0.702,2.405-0.702c1.577,0,2.366,0.797,2.366,2.392v4.407H355.206z M353.49,165.541
			c0.65,0,1.222-0.29,1.716-0.871v-1.144c-0.477-0.294-0.996-0.442-1.56-0.442c-0.46,0-0.837,0.104-1.131,0.312
			c-0.295,0.208-0.442,0.512-0.442,0.91c0,0.373,0.124,0.672,0.371,0.897C352.69,165.428,353.04,165.541,353.49,165.541z"/>
		<path d="M360.602,166.542c-0.85,0-1.521-0.305-2.016-0.917c-0.494-0.611-0.74-1.462-0.74-2.554c0-1.092,0.249-1.946,0.747-2.561
			s1.185-0.923,2.061-0.923c1.179,0,1.954,0.516,2.327,1.547l-1.066,0.39c-0.226-0.589-0.642-0.884-1.248-0.884
			c-0.555,0-0.971,0.212-1.248,0.637s-0.416,1.022-0.416,1.794c0,0.763,0.139,1.354,0.416,1.774s0.681,0.63,1.209,0.63
			c0.693,0,1.145-0.329,1.353-0.988l1.053,0.351c-0.165,0.546-0.457,0.966-0.878,1.261
			C361.734,166.394,361.217,166.542,360.602,166.542z"/>
		<path d="M364.735,166.386v-8.866l1.131-0.52v3.432c0.407-0.563,0.979-0.845,1.716-0.845c0.78,0,1.372,0.236,1.774,0.708
			c0.403,0.472,0.604,1.229,0.604,2.269v3.822h-1.131v-4.017c0-0.598-0.128-1.038-0.384-1.319c-0.255-0.282-0.604-0.422-1.046-0.422
			c-1.022,0-1.534,0.572-1.534,1.716v4.043H364.735z"/>
		<path d="M344.3,181.986v-9.1h1.131v9.1H344.3z"/>
		<path d="M351.904,181.986v-4.017c0-0.598-0.128-1.038-0.384-1.319c-0.255-0.282-0.604-0.422-1.046-0.422
			c-1.022,0-1.534,0.572-1.534,1.716v4.043h-1.131v-6.643h1.131v0.676c0.407-0.555,0.979-0.832,1.716-0.832
			c0.78,0,1.372,0.236,1.774,0.708c0.403,0.472,0.604,1.229,0.604,2.269v3.822H351.904z"/>
		<path d="M356.922,182.142c-0.937,0-1.404-0.528-1.404-1.586v-4.225h-1.079v-0.988h1.079v-2.197l1.131-0.546v2.743h1.639v0.988
			h-1.639v3.848c0,0.295,0.048,0.52,0.144,0.676c0.095,0.156,0.277,0.234,0.546,0.234c0.295,0,0.624-0.117,0.988-0.351l-0.13,1.105
			C357.814,182.042,357.39,182.142,356.922,182.142z"/>
		<path d="M362.421,182.142c-0.901,0-1.618-0.323-2.151-0.968s-0.799-1.484-0.799-2.516c0-1.083,0.269-1.933,0.806-2.548
			s1.252-0.923,2.145-0.923c0.798,0,1.454,0.266,1.97,0.799s0.773,1.319,0.773,2.359c0,0.243-0.013,0.494-0.039,0.754h-4.498
			c0.044,0.607,0.232,1.094,0.565,1.463c0.334,0.368,0.752,0.552,1.255,0.552c0.555,0,1.031-0.199,1.43-0.598l0.689,0.767
			C363.994,181.856,363.279,182.142,362.421,182.142z M360.614,178.138h3.406c-0.009-0.685-0.172-1.181-0.487-1.488
			c-0.317-0.308-0.688-0.461-1.112-0.461c-0.511,0-0.932,0.162-1.261,0.487S360.648,177.488,360.614,178.138z"/>
		<path d="M366.854,181.986v-6.643h1.131v0.871c0.312-0.685,0.836-1.027,1.573-1.027c0.416,0,0.758,0.113,1.026,0.338l-0.169,1.066
			c-0.277-0.19-0.594-0.286-0.948-0.286c-0.391,0-0.735,0.152-1.034,0.455c-0.299,0.304-0.448,0.797-0.448,1.482v3.744H366.854z"/>
		<path d="M375.46,181.986v-0.611c-0.546,0.511-1.174,0.767-1.885,0.767c-0.702,0-1.263-0.192-1.684-0.578
			c-0.42-0.386-0.63-0.938-0.63-1.658c0-0.719,0.238-1.265,0.715-1.638s1.065-0.559,1.768-0.559c0.642,0,1.214,0.143,1.716,0.429
			v-0.468c0-0.555-0.123-0.942-0.37-1.164s-0.604-0.332-1.072-0.332c-0.668,0-1.313,0.221-1.938,0.663l-0.325-0.949
			c0.711-0.468,1.513-0.702,2.405-0.702c1.577,0,2.366,0.797,2.366,2.392v4.407H375.46z M373.744,181.141
			c0.65,0,1.222-0.29,1.716-0.871v-1.144c-0.477-0.294-0.996-0.442-1.56-0.442c-0.46,0-0.837,0.104-1.131,0.312
			c-0.295,0.208-0.442,0.512-0.442,0.91c0,0.373,0.124,0.672,0.371,0.897C372.944,181.028,373.294,181.141,373.744,181.141z"/>
		<path d="M383.884,181.986h-1.234l-2.055-4.017l-0.975,1.014v3.003h-1.131v-8.853l1.131-0.533v5.031l2.158-2.288h1.352
			l-1.742,1.807L383.884,181.986z"/>
		<path d="M387.057,182.142c-0.937,0-1.404-0.528-1.404-1.586v-4.225h-1.079v-0.988h1.079v-2.197l1.131-0.546v2.743h1.639v0.988
			h-1.639v3.848c0,0.295,0.048,0.52,0.144,0.676c0.095,0.156,0.277,0.234,0.546,0.234c0.295,0,0.624-0.117,0.988-0.351l-0.13,1.105
			C387.949,182.042,387.524,182.142,387.057,182.142z"/>
		<path d="M391.204,173.932c-0.139,0.135-0.308,0.202-0.507,0.202c-0.2,0-0.366-0.069-0.501-0.208s-0.201-0.303-0.201-0.494
			c0-0.199,0.069-0.37,0.208-0.513s0.303-0.215,0.494-0.215c0.199,0,0.368,0.072,0.507,0.215s0.208,0.314,0.208,0.513
			C391.412,173.631,391.343,173.798,391.204,173.932z M390.138,181.986v-6.643h1.131v6.643H390.138z"/>
		<path d="M398.12,181.212c-0.529,0.62-1.244,0.929-2.146,0.929s-1.616-0.307-2.145-0.923c-0.529-0.615-0.793-1.464-0.793-2.548
			s0.264-1.935,0.793-2.555c0.528-0.62,1.243-0.929,2.145-0.929s1.616,0.308,2.146,0.923c0.528,0.615,0.793,1.465,0.793,2.548
			C398.913,179.741,398.648,180.593,398.12,181.212z M394.655,180.445c0.316,0.429,0.756,0.644,1.319,0.644s1.003-0.214,1.319-0.644
			s0.475-1.025,0.475-1.788c0-0.754-0.158-1.347-0.475-1.781s-0.756-0.65-1.319-0.65s-1.003,0.214-1.319,0.643
			c-0.316,0.429-0.475,1.029-0.475,1.801C394.181,179.425,394.339,180.016,394.655,180.445z"/>
		<path d="M404.775,181.986v-4.017c0-0.598-0.128-1.038-0.384-1.319c-0.255-0.282-0.604-0.422-1.046-0.422
			c-1.022,0-1.534,0.572-1.534,1.716v4.043h-1.131v-6.643h1.131v0.676c0.407-0.555,0.979-0.832,1.716-0.832
			c0.78,0,1.372,0.236,1.774,0.708c0.403,0.472,0.604,1.229,0.604,2.269v3.822H404.775z"/>
	</g>
	<g>
		<path d="M239.744,426.386l-3.12-9.101h1.209l2.171,6.578c0.156,0.529,0.247,0.837,0.273,0.924c0.034-0.165,0.121-0.473,0.26-0.924
			l2.105-6.578h1.209l-3.106,9.101H239.744z"/>
		<path d="M247.141,426.541c-0.901,0-1.618-0.322-2.151-0.968s-0.799-1.483-0.799-2.516c0-1.083,0.269-1.933,0.806-2.548
			s1.252-0.923,2.145-0.923c0.798,0,1.454,0.267,1.97,0.8s0.773,1.318,0.773,2.359c0,0.242-0.013,0.494-0.039,0.754h-4.498
			c0.044,0.606,0.232,1.094,0.565,1.463c0.334,0.367,0.752,0.552,1.255,0.552c0.555,0,1.031-0.199,1.43-0.599l0.689,0.768
			C248.714,426.256,247.999,426.541,247.141,426.541z M245.334,422.537h3.406c-0.009-0.684-0.172-1.18-0.487-1.488
			c-0.317-0.307-0.688-0.461-1.112-0.461c-0.511,0-0.932,0.162-1.261,0.487S245.368,421.888,245.334,422.537z"/>
		<path d="M251.574,426.386v-6.644h1.131v0.871c0.312-0.684,0.836-1.026,1.573-1.026c0.416,0,0.758,0.112,1.026,0.338l-0.169,1.065
			c-0.277-0.189-0.594-0.285-0.948-0.285c-0.391,0-0.735,0.151-1.034,0.455c-0.299,0.303-0.448,0.797-0.448,1.481v3.744H251.574z"/>
		<path d="M260.18,426.386v-0.61c-0.546,0.511-1.174,0.766-1.885,0.766c-0.702,0-1.263-0.191-1.684-0.578
			c-0.42-0.385-0.63-0.938-0.63-1.657s0.238-1.265,0.715-1.638s1.065-0.559,1.768-0.559c0.642,0,1.214,0.143,1.716,0.428v-0.467
			c0-0.555-0.123-0.943-0.37-1.164s-0.604-0.332-1.072-0.332c-0.668,0-1.313,0.222-1.938,0.664l-0.325-0.949
			c0.711-0.469,1.513-0.702,2.405-0.702c1.577,0,2.366,0.798,2.366,2.392v4.407H260.18z M258.256,418.391
			c-0.139,0.139-0.308,0.208-0.507,0.208s-0.368-0.069-0.507-0.208s-0.208-0.308-0.208-0.507s0.069-0.368,0.208-0.507
			s0.308-0.208,0.507-0.208s0.368,0.069,0.507,0.208s0.208,0.308,0.208,0.507S258.395,418.252,258.256,418.391z M258.464,425.541
			c0.65,0,1.222-0.291,1.716-0.871v-1.145c-0.477-0.294-0.996-0.441-1.56-0.441c-0.46,0-0.837,0.104-1.131,0.312
			c-0.295,0.208-0.442,0.512-0.442,0.91c0,0.373,0.124,0.672,0.371,0.897C257.664,425.428,258.014,425.541,258.464,425.541z
			 M260.505,418.391c-0.139,0.139-0.308,0.208-0.507,0.208s-0.368-0.069-0.507-0.208s-0.208-0.308-0.208-0.507
			s0.069-0.368,0.208-0.507s0.308-0.208,0.507-0.208s0.368,0.069,0.507,0.208s0.208,0.308,0.208,0.507
			S260.644,418.252,260.505,418.391z"/>
		<path d="M267.304,426.386v-4.017c0-0.599-0.128-1.038-0.384-1.32c-0.255-0.281-0.604-0.422-1.046-0.422
			c-1.022,0-1.534,0.572-1.534,1.716v4.043h-1.131v-6.644h1.131v0.677c0.407-0.555,0.979-0.832,1.716-0.832
			c0.78,0,1.372,0.235,1.774,0.708c0.403,0.473,0.604,1.229,0.604,2.27v3.821H267.304z"/>
		<path d="M272.881,426.541c-0.841,0-1.508-0.311-2.002-0.936c-0.494-0.623-0.74-1.473-0.74-2.548c0-1.083,0.249-1.933,0.747-2.548
			s1.163-0.923,1.995-0.923c0.65,0,1.209,0.208,1.678,0.624v-2.678l1.131-0.533v9.386h-1.131v-0.521
			C274.125,426.316,273.565,426.541,272.881,426.541z M273.037,425.488c0.658,0,1.166-0.299,1.521-0.896v-3.12
			c-0.355-0.563-0.863-0.845-1.521-0.845c-0.563,0-0.997,0.21-1.3,0.631c-0.304,0.42-0.455,1.02-0.455,1.8
			c0,0.702,0.158,1.282,0.475,1.742S272.5,425.488,273.037,425.488z"/>
		<path d="M280.395,426.541c-0.901,0-1.618-0.322-2.151-0.968s-0.799-1.483-0.799-2.516c0-1.083,0.269-1.933,0.806-2.548
			s1.252-0.923,2.145-0.923c0.798,0,1.454,0.267,1.97,0.8s0.773,1.318,0.773,2.359c0,0.242-0.013,0.494-0.039,0.754h-4.498
			c0.044,0.606,0.232,1.094,0.565,1.463c0.334,0.367,0.752,0.552,1.255,0.552c0.555,0,1.031-0.199,1.43-0.599l0.689,0.768
			C281.968,426.256,281.253,426.541,280.395,426.541z M278.588,422.537h3.406c-0.009-0.684-0.172-1.18-0.487-1.488
			c-0.317-0.307-0.688-0.461-1.112-0.461c-0.511,0-0.932,0.162-1.261,0.487S278.622,421.888,278.588,422.537z"/>
		<path d="M284.828,426.386v-6.644h1.131v0.871c0.312-0.684,0.836-1.026,1.573-1.026c0.416,0,0.758,0.112,1.026,0.338l-0.169,1.065
			c-0.277-0.189-0.594-0.285-0.948-0.285c-0.391,0-0.735,0.151-1.034,0.455c-0.299,0.303-0.448,0.797-0.448,1.481v3.744H284.828z"/>
		<path d="M293.785,426.386v-0.638c-0.408,0.529-0.967,0.793-1.678,0.793c-0.806,0-1.41-0.233-1.813-0.701
			c-0.402-0.469-0.604-1.223-0.604-2.262v-3.836h1.131v4.004c0,0.599,0.128,1.039,0.384,1.32s0.604,0.422,1.047,0.422
			c1.022,0,1.534-0.572,1.534-1.715v-4.031h1.131v6.644H293.785z"/>
		<path d="M301.168,426.386v-4.017c0-0.599-0.128-1.038-0.384-1.32c-0.255-0.281-0.604-0.422-1.046-0.422
			c-1.022,0-1.534,0.572-1.534,1.716v4.043h-1.131v-6.644h1.131v0.677c0.407-0.555,0.979-0.832,1.716-0.832
			c0.78,0,1.372,0.235,1.774,0.708c0.403,0.473,0.604,1.229,0.604,2.27v3.821H301.168z"/>
		<path d="M306.433,429.076l-0.546-0.883c0.962-0.053,1.627-0.22,1.995-0.501c0.368-0.282,0.553-0.665,0.553-1.151v-0.805
			c-0.39,0.537-0.962,0.805-1.716,0.805c-0.78,0-1.428-0.303-1.943-0.909c-0.517-0.606-0.773-1.465-0.773-2.574
			c0-1.074,0.253-1.922,0.76-2.542c0.507-0.619,1.172-0.929,1.996-0.929c0.693,0,1.252,0.233,1.677,0.702v-0.547h1.131v6.371
			c0,1.014-0.271,1.746-0.812,2.196S307.438,429.016,306.433,429.076z M306.952,425.488c0.277,0,0.553-0.084,0.826-0.253
			c0.272-0.169,0.491-0.396,0.656-0.683v-3.042c-0.156-0.26-0.377-0.472-0.663-0.638c-0.286-0.164-0.559-0.246-0.819-0.246
			c-0.589,0-1.038,0.21-1.345,0.631c-0.309,0.42-0.462,1.02-0.462,1.8c0,0.754,0.167,1.348,0.501,1.781
			C305.979,425.271,306.415,425.488,306.952,425.488z"/>
		<path d="M317.117,426.541c-0.841,0-1.508-0.311-2.002-0.936c-0.494-0.623-0.74-1.473-0.74-2.548c0-1.083,0.249-1.933,0.747-2.548
			s1.163-0.923,1.995-0.923c0.65,0,1.209,0.208,1.678,0.624v-2.678l1.131-0.533v9.386h-1.131v-0.521
			C318.361,426.316,317.802,426.541,317.117,426.541z M317.273,425.488c0.658,0,1.166-0.299,1.521-0.896v-3.12
			c-0.355-0.563-0.863-0.845-1.521-0.845c-0.563,0-0.997,0.21-1.3,0.631c-0.304,0.42-0.455,1.02-0.455,1.8
			c0,0.702,0.158,1.282,0.475,1.742S316.736,425.488,317.273,425.488z"/>
		<path d="M324.632,426.541c-0.901,0-1.618-0.322-2.151-0.968s-0.799-1.483-0.799-2.516c0-1.083,0.269-1.933,0.806-2.548
			s1.252-0.923,2.145-0.923c0.798,0,1.454,0.267,1.97,0.8s0.773,1.318,0.773,2.359c0,0.242-0.013,0.494-0.039,0.754h-4.498
			c0.044,0.606,0.232,1.094,0.565,1.463c0.334,0.367,0.752,0.552,1.255,0.552c0.555,0,1.031-0.199,1.43-0.599l0.689,0.768
			C326.205,426.256,325.49,426.541,324.632,426.541z M322.825,422.537h3.406c-0.009-0.684-0.172-1.18-0.487-1.488
			c-0.317-0.307-0.688-0.461-1.112-0.461c-0.511,0-0.932,0.162-1.261,0.487S322.859,421.888,322.825,422.537z"/>
		<path d="M329.065,426.386v-6.644h1.131v0.871c0.312-0.684,0.836-1.026,1.573-1.026c0.416,0,0.758,0.112,1.026,0.338l-0.169,1.065
			c-0.277-0.189-0.594-0.285-0.948-0.285c-0.391,0-0.735,0.151-1.034,0.455c-0.299,0.303-0.448,0.797-0.448,1.481v3.744H329.065z"/>
		<path d="M340.023,426.541c-0.771,0-1.44-0.188-2.008-0.564c-0.568-0.377-0.956-0.865-1.164-1.463l1.066-0.391
			c0.19,0.416,0.472,0.746,0.845,0.988c0.372,0.243,0.802,0.364,1.287,0.364c0.555,0,0.992-0.132,1.312-0.396
			c0.321-0.265,0.481-0.644,0.481-1.138c0-0.477-0.18-0.857-0.54-1.144c-0.359-0.286-0.864-0.546-1.514-0.78
			c-0.312-0.112-0.57-0.212-0.773-0.299c-0.204-0.086-0.438-0.21-0.702-0.371c-0.265-0.16-0.475-0.324-0.631-0.494
			c-0.156-0.168-0.288-0.381-0.396-0.637c-0.108-0.255-0.162-0.535-0.162-0.838c0-0.633,0.251-1.166,0.754-1.6
			c0.502-0.433,1.183-0.649,2.041-0.649c0.702,0,1.287,0.149,1.755,0.448s0.771,0.691,0.91,1.177l-1.04,0.351
			c-0.122-0.268-0.33-0.489-0.624-0.662c-0.295-0.174-0.654-0.261-1.079-0.261c-0.477,0-0.854,0.106-1.131,0.319
			c-0.277,0.212-0.416,0.504-0.416,0.877c0,0.199,0.05,0.381,0.149,0.546s0.255,0.312,0.468,0.442
			c0.212,0.129,0.409,0.233,0.592,0.312c0.182,0.078,0.433,0.178,0.754,0.299c0.398,0.147,0.728,0.288,0.988,0.423
			c0.26,0.135,0.541,0.314,0.845,0.539c0.303,0.226,0.533,0.506,0.688,0.839c0.156,0.333,0.234,0.713,0.234,1.138
			c0,0.814-0.277,1.455-0.832,1.924C341.627,426.308,340.907,426.541,340.023,426.541z"/>
		<path d="M347.524,426.541c-0.901,0-1.618-0.322-2.151-0.968s-0.799-1.483-0.799-2.516c0-1.083,0.269-1.933,0.806-2.548
			s1.252-0.923,2.145-0.923c0.798,0,1.454,0.267,1.97,0.8s0.773,1.318,0.773,2.359c0,0.242-0.013,0.494-0.039,0.754h-4.498
			c0.044,0.606,0.232,1.094,0.565,1.463c0.334,0.367,0.752,0.552,1.255,0.552c0.555,0,1.031-0.199,1.43-0.599l0.689,0.768
			C349.098,426.256,348.383,426.541,347.524,426.541z M345.718,422.537h3.406c-0.009-0.684-0.172-1.18-0.487-1.488
			c-0.317-0.307-0.688-0.461-1.112-0.461c-0.511,0-0.932,0.162-1.261,0.487S345.752,421.888,345.718,422.537z"/>
		<path d="M353.037,418.332c-0.139,0.135-0.308,0.201-0.507,0.201c-0.2,0-0.366-0.068-0.501-0.207s-0.201-0.304-0.201-0.494
			c0-0.199,0.069-0.371,0.208-0.514s0.303-0.215,0.494-0.215c0.199,0,0.368,0.072,0.507,0.215s0.208,0.314,0.208,0.514
			S353.176,418.197,353.037,418.332z M351.971,426.386v-6.644h1.131v6.644H351.971z"/>
		<path d="M357.053,426.541c-0.937,0-1.404-0.527-1.404-1.586v-4.225h-1.079v-0.988h1.079v-2.196l1.131-0.546v2.742h1.639v0.988
			h-1.639v3.848c0,0.295,0.048,0.521,0.144,0.677c0.095,0.155,0.277,0.233,0.546,0.233c0.295,0,0.624-0.117,0.988-0.351l-0.13,1.104
			C357.945,426.441,357.521,426.541,357.053,426.541z"/>
		<path d="M362.552,426.541c-0.901,0-1.618-0.322-2.151-0.968s-0.799-1.483-0.799-2.516c0-1.083,0.269-1.933,0.806-2.548
			s1.252-0.923,2.145-0.923c0.798,0,1.454,0.267,1.97,0.8s0.773,1.318,0.773,2.359c0,0.242-0.013,0.494-0.039,0.754h-4.498
			c0.044,0.606,0.232,1.094,0.565,1.463c0.334,0.367,0.752,0.552,1.255,0.552c0.555,0,1.031-0.199,1.43-0.599l0.689,0.768
			C364.125,426.256,363.41,426.541,362.552,426.541z M360.745,422.537h3.406c-0.009-0.684-0.172-1.18-0.487-1.488
			c-0.317-0.307-0.688-0.461-1.112-0.461c-0.511,0-0.932,0.162-1.261,0.487S360.779,421.888,360.745,422.537z"/>
	</g>
</g>
<g id="Ebene_1">
</g>
</svg>
