<?xml version="1.0" encoding="utf-8"?>
<!-- Generator: Adobe Illustrator 22.0.1, SVG Export Plug-In . SVG Version: 6.00 Build 0)  -->
<svg version="1.1" xmlns="http://www.w3.org/2000/svg" xmlns:xlink="http://www.w3.org/1999/xlink" x="0px" y="0px"
	 viewBox="0 0 500 500" enable-background="new 0 0 500 500" xml:space="preserve">
<g id="Ebene_2">
	<rect x="3" y="3" fill="none" stroke="#F1BF22" stroke-width="3" stroke-miterlimit="10" width="181.867" height="88"/>
	<text transform="matrix(1 0 0 1 33.6602 59.4521)" font-family="'MyriadPro-Regular'" font-size="51.2154px">&lt; ... &gt;</text>
	
		<rect x="199.5" y="272.5" fill="none" stroke="#000000" stroke-width="3" stroke-miterlimit="10" width="235.083" height="113.75"/>
	<text transform="matrix(1 0 0 1 263.3764 345.9521)" font-family="'MyriadPro-Regular'" font-size="51.2154px">&lt; ... &gt;</text>
	<polyline fill="none" stroke="#000000" stroke-width="3" stroke-miterlimit="10" points="205.5,41.5 318.5,41.5 318.5,97.5 	"/>
	<line fill="none" stroke="#000000" stroke-width="3" stroke-miterlimit="10" x1="318.5" y1="199.5" x2="318.5" y2="239.5"/>
	<polygon fill="none" stroke="#000000" stroke-width="3" stroke-miterlimit="10" points="307.5,97.5 329.5,97.5 318.5,111.5 	"/>
	<polygon fill="none" stroke="#000000" stroke-width="3" stroke-miterlimit="10" points="307.5,239.5 329.5,239.5 318.5,253.5 	"/>
	<polygon points="328.5,191.5 328.5,169.5 342.5,180.5 	"/>
	<polyline fill="none" stroke="#000000" stroke-width="3" stroke-miterlimit="10" points="292.5,139.5 292.5,180.5 333.5,180.5 	"/>
	<polygon points="306.5,119.5 306.5,141.5 292.5,130.5 	"/>
	<polyline fill="none" stroke="#000000" stroke-width="3" stroke-miterlimit="10" points="342.5,171.5 342.5,130.5 301.5,130.5 	"/>
	<g>
		<path d="M351.3,166.386v-9.1h1.131v9.1H351.3z"/>
		<path d="M358.904,166.386v-4.017c0-0.598-0.128-1.038-0.384-1.319c-0.255-0.282-0.604-0.422-1.046-0.422
			c-1.022,0-1.534,0.572-1.534,1.716v4.043h-1.131v-6.643h1.131v0.676c0.407-0.555,0.979-0.832,1.716-0.832
			c0.78,0,1.372,0.236,1.774,0.708c0.403,0.472,0.604,1.229,0.604,2.269v3.822H358.904z"/>
		<path d="M363.922,166.542c-0.937,0-1.404-0.528-1.404-1.586v-4.225h-1.079v-0.988h1.079v-2.197l1.131-0.546v2.743h1.639v0.988
			h-1.639v3.848c0,0.295,0.048,0.52,0.144,0.676c0.095,0.156,0.277,0.234,0.546,0.234c0.295,0,0.624-0.117,0.988-0.351l-0.13,1.105
			C364.814,166.442,364.39,166.542,363.922,166.542z"/>
		<path d="M369.421,166.542c-0.901,0-1.618-0.323-2.151-0.968s-0.799-1.484-0.799-2.516c0-1.083,0.269-1.933,0.806-2.548
			s1.252-0.923,2.145-0.923c0.798,0,1.454,0.266,1.97,0.799s0.773,1.319,0.773,2.359c0,0.243-0.013,0.494-0.039,0.754h-4.498
			c0.044,0.607,0.232,1.094,0.565,1.463c0.334,0.368,0.752,0.552,1.255,0.552c0.555,0,1.031-0.199,1.43-0.598l0.689,0.767
			C370.994,166.256,370.279,166.542,369.421,166.542z M367.614,162.538h3.406c-0.009-0.685-0.172-1.181-0.487-1.488
			c-0.317-0.308-0.688-0.461-1.112-0.461c-0.511,0-0.932,0.162-1.261,0.487S367.648,161.888,367.614,162.538z"/>
		<path d="M373.854,166.386v-6.643h1.131v0.871c0.312-0.685,0.836-1.027,1.573-1.027c0.416,0,0.758,0.113,1.026,0.338l-0.169,1.066
			c-0.277-0.19-0.594-0.286-0.948-0.286c-0.391,0-0.735,0.152-1.034,0.455c-0.299,0.304-0.448,0.797-0.448,1.482v3.744H373.854z"/>
		<path d="M381.745,166.542c-0.693,0-1.261-0.26-1.703-0.78v2.717l-1.131,0.533v-9.269h1.131v0.559
			c0.477-0.477,1.044-0.715,1.703-0.715c0.841,0,1.508,0.312,2.002,0.936s0.741,1.469,0.741,2.535c0,1.083-0.252,1.935-0.754,2.555
			C383.231,166.232,382.568,166.542,381.745,166.542z M381.602,165.489c0.555,0,0.982-0.21,1.281-0.63s0.448-1.021,0.448-1.801
			c0-0.736-0.154-1.326-0.462-1.768c-0.308-0.442-0.729-0.663-1.268-0.663c-0.701,0-1.222,0.299-1.56,0.897v3.068
			C380.501,165.19,381.021,165.489,381.602,165.489z"/>
		<path d="M386.243,166.386v-6.643h1.131v0.871c0.312-0.685,0.836-1.027,1.573-1.027c0.416,0,0.758,0.113,1.026,0.338l-0.169,1.066
			c-0.277-0.19-0.594-0.286-0.948-0.286c-0.391,0-0.735,0.152-1.034,0.455c-0.299,0.304-0.448,0.797-0.448,1.482v3.744H386.243z"/>
		<path d="M393.86,166.542c-0.901,0-1.618-0.323-2.151-0.968s-0.799-1.484-0.799-2.516c0-1.083,0.269-1.933,0.806-2.548
			s1.252-0.923,2.145-0.923c0.798,0,1.454,0.266,1.97,0.799s0.773,1.319,0.773,2.359c0,0.243-0.013,0.494-0.039,0.754h-4.498
			c0.044,0.607,0.232,1.094,0.565,1.463c0.334,0.368,0.752,0.552,1.255,0.552c0.555,0,1.031-0.199,1.43-0.598l0.689,0.767
			C395.434,166.256,394.719,166.542,393.86,166.542z M392.054,162.538h3.406c-0.009-0.685-0.172-1.181-0.487-1.488
			c-0.317-0.308-0.688-0.461-1.112-0.461c-0.511,0-0.932,0.162-1.261,0.487S392.088,161.888,392.054,162.538z"/>
		<path d="M399.958,166.542c-0.937,0-1.404-0.528-1.404-1.586v-4.225h-1.079v-0.988h1.079v-2.197l1.131-0.546v2.743h1.639v0.988
			h-1.639v3.848c0,0.295,0.048,0.52,0.144,0.676c0.095,0.156,0.277,0.234,0.546,0.234c0.295,0,0.624-0.117,0.988-0.351l-0.13,1.105
			C400.851,166.442,400.426,166.542,399.958,166.542z"/>
		<path d="M405.457,166.542c-0.901,0-1.618-0.323-2.151-0.968s-0.799-1.484-0.799-2.516c0-1.083,0.269-1.933,0.806-2.548
			s1.252-0.923,2.145-0.923c0.798,0,1.454,0.266,1.97,0.799s0.773,1.319,0.773,2.359c0,0.243-0.013,0.494-0.039,0.754h-4.498
			c0.044,0.607,0.232,1.094,0.565,1.463c0.334,0.368,0.752,0.552,1.255,0.552c0.555,0,1.031-0.199,1.43-0.598l0.689,0.767
			C407.03,166.256,406.315,166.542,405.457,166.542z M403.65,162.538h3.406c-0.009-0.685-0.172-1.181-0.487-1.488
			c-0.317-0.308-0.688-0.461-1.112-0.461c-0.511,0-0.932,0.162-1.261,0.487S403.685,161.888,403.65,162.538z"/>
		<path d="M409.891,166.386v-6.643h1.131v0.871c0.312-0.685,0.836-1.027,1.573-1.027c0.416,0,0.758,0.113,1.026,0.338l-0.169,1.066
			c-0.277-0.19-0.594-0.286-0.948-0.286c-0.391,0-0.735,0.152-1.034,0.455c-0.299,0.304-0.448,0.797-0.448,1.482v3.744H409.891z"/>
		<path d="M351.274,181.986v-9.1h3.483c0.528,0,0.99,0.078,1.385,0.234c0.395,0.156,0.699,0.366,0.916,0.631
			c0.217,0.264,0.377,0.552,0.481,0.864c0.104,0.312,0.156,0.646,0.156,1.001c0,0.72-0.245,1.352-0.734,1.898
			c-0.49,0.546-1.225,0.819-2.204,0.819h-2.353v3.653H351.274z M354.836,177.28c0.589,0,1.024-0.165,1.307-0.494
			c0.281-0.329,0.423-0.719,0.423-1.17c0-0.442-0.135-0.832-0.403-1.17s-0.711-0.507-1.326-0.507h-2.431v3.341H354.836z"/>
		<path d="M359.269,181.986v-6.643h1.131v0.871c0.312-0.685,0.836-1.027,1.573-1.027c0.416,0,0.758,0.113,1.026,0.338l-0.169,1.066
			c-0.277-0.19-0.594-0.286-0.948-0.286c-0.391,0-0.735,0.152-1.034,0.455c-0.299,0.304-0.448,0.797-0.448,1.482v3.744H359.269z"/>
		<path d="M367.874,181.986v-0.611c-0.546,0.511-1.174,0.767-1.885,0.767c-0.702,0-1.263-0.192-1.684-0.578
			c-0.42-0.386-0.63-0.938-0.63-1.658c0-0.719,0.238-1.265,0.715-1.638s1.065-0.559,1.768-0.559c0.642,0,1.214,0.143,1.716,0.429
			v-0.468c0-0.555-0.123-0.942-0.37-1.164s-0.604-0.332-1.072-0.332c-0.668,0-1.313,0.221-1.938,0.663l-0.325-0.949
			c0.711-0.468,1.513-0.702,2.405-0.702c1.577,0,2.366,0.797,2.366,2.392v4.407H367.874z M365.95,173.991
			c-0.139,0.139-0.308,0.208-0.507,0.208s-0.368-0.069-0.507-0.208c-0.139-0.138-0.208-0.308-0.208-0.507s0.069-0.368,0.208-0.507
			s0.308-0.208,0.507-0.208s0.368,0.069,0.507,0.208s0.208,0.308,0.208,0.507S366.089,173.853,365.95,173.991z M366.158,181.141
			c0.65,0,1.222-0.29,1.716-0.871v-1.144c-0.477-0.294-0.996-0.442-1.56-0.442c-0.46,0-0.837,0.104-1.131,0.312
			c-0.295,0.208-0.442,0.512-0.442,0.91c0,0.373,0.124,0.672,0.371,0.897C365.358,181.028,365.708,181.141,366.158,181.141z
			 M368.199,173.991c-0.139,0.139-0.308,0.208-0.507,0.208s-0.368-0.069-0.507-0.208c-0.139-0.138-0.208-0.308-0.208-0.507
			s0.069-0.368,0.208-0.507s0.308-0.208,0.507-0.208s0.368,0.069,0.507,0.208s0.208,0.308,0.208,0.507
			S368.338,173.853,368.199,173.991z"/>
		<path d="M373.737,182.142c-0.693,0-1.261-0.26-1.703-0.78v2.717l-1.131,0.533v-9.269h1.131v0.559
			c0.477-0.477,1.044-0.715,1.703-0.715c0.841,0,1.508,0.312,2.002,0.936s0.741,1.469,0.741,2.535c0,1.083-0.252,1.935-0.754,2.555
			C375.224,181.832,374.561,182.142,373.737,182.142z M373.594,181.089c0.555,0,0.982-0.21,1.281-0.63s0.448-1.021,0.448-1.801
			c0-0.736-0.154-1.326-0.462-1.768c-0.308-0.442-0.729-0.663-1.268-0.663c-0.701,0-1.222,0.299-1.56,0.897v3.068
			C372.493,180.79,373.014,181.089,373.594,181.089z"/>
		<path d="M378.235,181.986v-6.643h1.131v0.871c0.312-0.685,0.836-1.027,1.573-1.027c0.416,0,0.758,0.113,1.026,0.338l-0.169,1.066
			c-0.277-0.19-0.594-0.286-0.948-0.286c-0.391,0-0.735,0.152-1.034,0.455c-0.299,0.304-0.448,0.797-0.448,1.482v3.744H378.235z"/>
		<path d="M387.985,181.212c-0.529,0.62-1.244,0.929-2.146,0.929s-1.616-0.307-2.145-0.923c-0.529-0.615-0.793-1.464-0.793-2.548
			s0.264-1.935,0.793-2.555c0.528-0.62,1.243-0.929,2.145-0.929s1.616,0.308,2.146,0.923c0.528,0.615,0.793,1.465,0.793,2.548
			C388.778,179.741,388.514,180.593,387.985,181.212z M384.521,180.445c0.316,0.429,0.756,0.644,1.319,0.644
			s1.003-0.214,1.319-0.644s0.475-1.025,0.475-1.788c0-0.754-0.158-1.347-0.475-1.781s-0.756-0.65-1.319-0.65
			s-1.003,0.214-1.319,0.643c-0.316,0.429-0.475,1.029-0.475,1.801C384.046,179.425,384.204,180.016,384.521,180.445z"/>
		<path d="M390.286,181.986v-0.832l3.458-4.81h-3.198v-1.001h4.615v0.806l-3.472,4.823h3.458v1.014H390.286z"/>
		<path d="M399.671,182.142c-0.901,0-1.618-0.323-2.151-0.968s-0.799-1.484-0.799-2.516c0-1.083,0.269-1.933,0.806-2.548
			s1.252-0.923,2.145-0.923c0.798,0,1.454,0.266,1.97,0.799s0.773,1.319,0.773,2.359c0,0.243-0.013,0.494-0.039,0.754h-4.498
			c0.044,0.607,0.232,1.094,0.565,1.463c0.334,0.368,0.752,0.552,1.255,0.552c0.555,0,1.031-0.199,1.43-0.598l0.689,0.767
			C401.244,181.856,400.529,182.142,399.671,182.142z M397.864,178.138h3.406c-0.009-0.685-0.172-1.181-0.487-1.488
			c-0.317-0.308-0.688-0.461-1.112-0.461c-0.511,0-0.932,0.162-1.261,0.487S397.898,177.488,397.864,178.138z"/>
		<path d="M406.067,182.142c-0.477,0-0.93-0.102-1.358-0.305s-0.778-0.475-1.047-0.812l0.807-0.689
			c0.493,0.529,1.035,0.793,1.625,0.793c0.372,0,0.671-0.072,0.896-0.214c0.226-0.143,0.338-0.353,0.338-0.631
			c0-0.208-0.082-0.396-0.247-0.565c-0.164-0.169-0.333-0.294-0.507-0.377c-0.173-0.082-0.429-0.188-0.767-0.318
			c-0.676-0.251-1.188-0.533-1.534-0.845s-0.521-0.724-0.521-1.235c0-0.537,0.211-0.964,0.631-1.281
			c0.42-0.316,0.956-0.474,1.605-0.474c0.928,0,1.673,0.333,2.236,1.001l-0.78,0.65c-0.407-0.425-0.896-0.637-1.469-0.637
			c-0.338,0-0.606,0.065-0.807,0.195c-0.199,0.13-0.299,0.312-0.299,0.546c0,0.13,0.033,0.249,0.098,0.357
			c0.065,0.108,0.183,0.21,0.352,0.306s0.303,0.167,0.402,0.214c0.1,0.048,0.284,0.124,0.553,0.228
			c0.702,0.251,1.237,0.538,1.605,0.858c0.368,0.321,0.553,0.771,0.553,1.352c0,0.589-0.213,1.051-0.637,1.384
			C407.372,181.975,406.795,182.142,406.067,182.142z"/>
		<path d="M412.164,182.142c-0.477,0-0.93-0.102-1.358-0.305s-0.778-0.475-1.047-0.812l0.807-0.689
			c0.493,0.529,1.035,0.793,1.625,0.793c0.372,0,0.671-0.072,0.896-0.214c0.226-0.143,0.338-0.353,0.338-0.631
			c0-0.208-0.082-0.396-0.247-0.565c-0.164-0.169-0.333-0.294-0.507-0.377c-0.173-0.082-0.429-0.188-0.767-0.318
			c-0.676-0.251-1.188-0.533-1.534-0.845s-0.521-0.724-0.521-1.235c0-0.537,0.211-0.964,0.631-1.281
			c0.42-0.316,0.956-0.474,1.605-0.474c0.928,0,1.673,0.333,2.236,1.001l-0.78,0.65c-0.407-0.425-0.896-0.637-1.469-0.637
			c-0.338,0-0.606,0.065-0.807,0.195c-0.199,0.13-0.299,0.312-0.299,0.546c0,0.13,0.033,0.249,0.098,0.357
			c0.065,0.108,0.183,0.21,0.352,0.306s0.303,0.167,0.402,0.214c0.1,0.048,0.284,0.124,0.553,0.228
			c0.702,0.251,1.237,0.538,1.605,0.858c0.368,0.321,0.553,0.771,0.553,1.352c0,0.589-0.213,1.051-0.637,1.384
			C413.469,181.975,412.892,182.142,412.164,182.142z"/>
		<path d="M420.991,181.212c-0.529,0.62-1.244,0.929-2.146,0.929s-1.616-0.307-2.145-0.923c-0.529-0.615-0.793-1.464-0.793-2.548
			s0.264-1.935,0.793-2.555c0.528-0.62,1.243-0.929,2.145-0.929s1.616,0.308,2.146,0.923c0.528,0.615,0.793,1.465,0.793,2.548
			C421.784,179.741,421.52,180.593,420.991,181.212z M417.526,180.445c0.316,0.429,0.756,0.644,1.319,0.644s1.003-0.214,1.319-0.644
			s0.475-1.025,0.475-1.788c0-0.754-0.158-1.347-0.475-1.781s-0.756-0.65-1.319-0.65s-1.003,0.214-1.319,0.643
			c-0.316,0.429-0.475,1.029-0.475,1.801C417.052,179.425,417.21,180.016,417.526,180.445z"/>
		<path d="M423.552,181.986v-6.643h1.131v0.871c0.312-0.685,0.836-1.027,1.573-1.027c0.416,0,0.758,0.113,1.026,0.338l-0.169,1.066
			c-0.277-0.19-0.594-0.286-0.948-0.286c-0.391,0-0.735,0.152-1.034,0.455c-0.299,0.304-0.448,0.797-0.448,1.482v3.744H423.552z"/>
	</g>
	<g>
		<path d="M6.274,110.386v-9.1h3.483c0.528,0,0.99,0.078,1.385,0.234c0.395,0.156,0.699,0.366,0.916,0.631
			c0.217,0.264,0.377,0.552,0.481,0.864c0.104,0.312,0.156,0.646,0.156,1.001c0,0.72-0.245,1.352-0.734,1.898
			c-0.49,0.546-1.225,0.819-2.204,0.819H7.405v3.653H6.274z M9.836,105.68c0.589,0,1.024-0.165,1.307-0.494
			c0.281-0.329,0.423-0.719,0.423-1.17c0-0.442-0.135-0.832-0.403-1.17s-0.711-0.507-1.326-0.507H7.405v3.341H9.836z"/>
		<path d="M14.269,110.386v-6.643h1.131v0.871c0.312-0.685,0.836-1.027,1.573-1.027c0.416,0,0.758,0.113,1.026,0.338l-0.169,1.066
			c-0.277-0.19-0.594-0.286-0.948-0.286c-0.391,0-0.735,0.152-1.034,0.455c-0.299,0.304-0.448,0.797-0.448,1.482v3.744H14.269z"/>
		<path d="M24.019,109.612c-0.529,0.62-1.244,0.929-2.146,0.929s-1.616-0.307-2.145-0.923c-0.529-0.615-0.793-1.464-0.793-2.548
			s0.264-1.935,0.793-2.555c0.528-0.62,1.243-0.929,2.145-0.929s1.616,0.308,2.146,0.923c0.528,0.615,0.793,1.465,0.793,2.548
			C24.812,108.141,24.547,108.993,24.019,109.612z M20.554,108.845c0.316,0.429,0.756,0.644,1.319,0.644s1.003-0.214,1.319-0.644
			s0.475-1.025,0.475-1.788c0-0.754-0.158-1.347-0.475-1.781s-0.756-0.65-1.319-0.65s-1.003,0.214-1.319,0.643
			c-0.316,0.429-0.475,1.029-0.475,1.801C20.079,107.825,20.237,108.416,20.554,108.845z"/>
		<path d="M28.62,113.077l-0.546-0.884c0.962-0.052,1.627-0.219,1.995-0.5c0.368-0.282,0.553-0.666,0.553-1.151v-0.806
			c-0.39,0.538-0.962,0.806-1.716,0.806c-0.78,0-1.428-0.303-1.943-0.91c-0.517-0.606-0.773-1.465-0.773-2.574
			c0-1.074,0.253-1.922,0.76-2.542s1.172-0.929,1.996-0.929c0.693,0,1.252,0.234,1.677,0.702v-0.546h1.131v6.37
			c0,1.014-0.271,1.746-0.812,2.197S29.625,113.016,28.62,113.077z M29.14,109.489c0.277,0,0.553-0.084,0.826-0.253
			c0.272-0.169,0.491-0.396,0.656-0.683v-3.042c-0.156-0.26-0.377-0.472-0.663-0.637c-0.286-0.165-0.559-0.247-0.819-0.247
			c-0.589,0-1.038,0.21-1.345,0.63c-0.309,0.42-0.462,1.021-0.462,1.8c0,0.754,0.167,1.348,0.501,1.781
			C28.167,109.272,28.603,109.489,29.14,109.489z"/>
		<path d="M33.897,110.386v-6.643h1.131v0.871c0.312-0.685,0.836-1.027,1.573-1.027c0.416,0,0.758,0.113,1.026,0.338l-0.169,1.066
			c-0.277-0.19-0.594-0.286-0.948-0.286c-0.391,0-0.735,0.152-1.034,0.455c-0.299,0.304-0.448,0.797-0.448,1.482v3.744H33.897z"/>
		<path d="M42.503,110.386v-0.611c-0.546,0.511-1.174,0.767-1.885,0.767c-0.702,0-1.263-0.192-1.684-0.578
			c-0.42-0.386-0.63-0.938-0.63-1.658c0-0.719,0.238-1.265,0.715-1.638s1.065-0.559,1.768-0.559c0.642,0,1.214,0.143,1.716,0.429
			v-0.468c0-0.555-0.123-0.942-0.37-1.164s-0.604-0.332-1.072-0.332c-0.668,0-1.313,0.221-1.938,0.663l-0.325-0.949
			c0.711-0.468,1.513-0.702,2.405-0.702c1.577,0,2.366,0.797,2.366,2.392v4.407H42.503z M40.787,109.541
			c0.65,0,1.222-0.29,1.716-0.871v-1.144c-0.477-0.294-0.996-0.442-1.56-0.442c-0.46,0-0.837,0.104-1.131,0.312
			c-0.295,0.208-0.442,0.512-0.442,0.91c0,0.373,0.124,0.672,0.371,0.897C39.987,109.428,40.337,109.541,40.787,109.541z"/>
		<path d="M53.319,110.386v-4.03c0-1.153-0.446-1.729-1.339-1.729c-0.425,0-0.77,0.162-1.034,0.487
			c-0.264,0.325-0.396,0.752-0.396,1.28v3.991h-1.131v-4.03c0-1.153-0.441-1.729-1.326-1.729c-0.441,0-0.791,0.154-1.046,0.461
			c-0.256,0.308-0.384,0.726-0.384,1.254v4.043h-1.131v-6.643h1.131v0.624c0.39-0.52,0.971-0.78,1.742-0.78
			c0.372,0,0.717,0.084,1.033,0.253s0.565,0.409,0.748,0.721c0.424-0.65,1.065-0.975,1.924-0.975c0.693,0,1.256,0.212,1.689,0.637
			c0.434,0.425,0.65,1.027,0.65,1.807v4.355H53.319z"/>
		<path d="M64.317,110.386v-4.03c0-1.153-0.446-1.729-1.339-1.729c-0.425,0-0.77,0.162-1.034,0.487
			c-0.264,0.325-0.396,0.752-0.396,1.28v3.991h-1.131v-4.03c0-1.153-0.441-1.729-1.326-1.729c-0.441,0-0.791,0.154-1.046,0.461
			c-0.256,0.308-0.384,0.726-0.384,1.254v4.043H56.53v-6.643h1.131v0.624c0.39-0.52,0.971-0.78,1.742-0.78
			c0.372,0,0.717,0.084,1.033,0.253s0.565,0.409,0.748,0.721c0.424-0.65,1.065-0.975,1.924-0.975c0.693,0,1.256,0.212,1.689,0.637
			c0.434,0.425,0.65,1.027,0.65,1.807v4.355H64.317z"/>
		<path d="M69.895,110.542c-0.85,0-1.521-0.305-2.016-0.917c-0.494-0.611-0.74-1.462-0.74-2.554c0-1.092,0.249-1.946,0.747-2.561
			s1.185-0.923,2.061-0.923c1.179,0,1.954,0.516,2.327,1.547l-1.066,0.39c-0.226-0.589-0.642-0.884-1.248-0.884
			c-0.555,0-0.971,0.212-1.248,0.637s-0.416,1.022-0.416,1.794c0,0.763,0.139,1.354,0.416,1.774s0.681,0.63,1.209,0.63
			c0.693,0,1.145-0.329,1.353-0.988l1.053,0.351c-0.165,0.546-0.457,0.966-0.878,1.261C71.027,110.394,70.51,110.542,69.895,110.542
			z"/>
		<path d="M78.722,109.612c-0.529,0.62-1.244,0.929-2.146,0.929s-1.616-0.307-2.145-0.923c-0.529-0.615-0.793-1.464-0.793-2.548
			s0.264-1.935,0.793-2.555c0.528-0.62,1.243-0.929,2.145-0.929s1.616,0.308,2.146,0.923c0.528,0.615,0.793,1.465,0.793,2.548
			C79.515,108.141,79.25,108.993,78.722,109.612z M75.257,108.845c0.316,0.429,0.756,0.644,1.319,0.644s1.003-0.214,1.319-0.644
			s0.475-1.025,0.475-1.788c0-0.754-0.158-1.347-0.475-1.781s-0.756-0.65-1.319-0.65s-1.003,0.214-1.319,0.643
			c-0.316,0.429-0.475,1.029-0.475,1.801C74.782,107.825,74.94,108.416,75.257,108.845z"/>
		<path d="M83.635,110.542c-0.841,0-1.508-0.312-2.002-0.936s-0.74-1.474-0.74-2.548c0-1.083,0.249-1.933,0.747-2.548
			s1.163-0.923,1.995-0.923c0.65,0,1.209,0.208,1.678,0.624v-2.678L86.443,101v9.386h-1.131v-0.52
			C84.879,110.316,84.319,110.542,83.635,110.542z M83.791,109.489c0.658,0,1.166-0.299,1.521-0.897v-3.12
			c-0.355-0.563-0.863-0.845-1.521-0.845c-0.563,0-0.997,0.21-1.3,0.63c-0.304,0.42-0.455,1.021-0.455,1.8
			c0,0.702,0.158,1.283,0.475,1.742S83.254,109.489,83.791,109.489z"/>
		<path d="M91.148,110.542c-0.901,0-1.618-0.323-2.151-0.968s-0.799-1.484-0.799-2.516c0-1.083,0.269-1.933,0.806-2.548
			s1.252-0.923,2.145-0.923c0.798,0,1.454,0.266,1.97,0.799s0.773,1.319,0.773,2.359c0,0.243-0.013,0.494-0.039,0.754h-4.498
			c0.044,0.607,0.232,1.094,0.565,1.463c0.334,0.368,0.752,0.552,1.255,0.552c0.555,0,1.031-0.199,1.43-0.598l0.689,0.767
			C92.722,110.256,92.007,110.542,91.148,110.542z M89.342,106.538h3.406c-0.009-0.685-0.172-1.181-0.487-1.488
			c-0.317-0.308-0.688-0.461-1.112-0.461c-0.511,0-0.932,0.162-1.261,0.487S89.376,105.888,89.342,106.538z"/>
	</g>
	<g>
		<path d="M201.274,407.386v-9.101h3.483c0.528,0,0.99,0.078,1.385,0.234s0.699,0.366,0.916,0.631
			c0.217,0.264,0.377,0.553,0.481,0.864c0.104,0.312,0.156,0.646,0.156,1.001c0,0.72-0.245,1.352-0.734,1.898
			c-0.49,0.546-1.225,0.818-2.204,0.818h-2.353v3.653H201.274z M204.836,402.68c0.589,0,1.024-0.164,1.307-0.494
			c0.281-0.329,0.423-0.719,0.423-1.17c0-0.441-0.135-0.832-0.403-1.17s-0.711-0.507-1.326-0.507h-2.431v3.341H204.836z"/>
		<path d="M209.269,407.386v-6.644h1.131v0.871c0.312-0.684,0.836-1.026,1.573-1.026c0.416,0,0.758,0.112,1.026,0.338l-0.169,1.065
			c-0.277-0.189-0.594-0.285-0.948-0.285c-0.391,0-0.735,0.151-1.034,0.455c-0.299,0.303-0.448,0.797-0.448,1.481v3.744H209.269z"/>
		<path d="M219.019,406.612c-0.529,0.62-1.244,0.929-2.146,0.929s-1.616-0.307-2.145-0.922c-0.529-0.615-0.793-1.465-0.793-2.549
			c0-1.083,0.264-1.935,0.793-2.555c0.528-0.619,1.243-0.929,2.145-0.929s1.616,0.308,2.146,0.923
			c0.528,0.615,0.793,1.465,0.793,2.548S219.547,405.992,219.019,406.612z M215.554,405.846c0.316,0.429,0.756,0.643,1.319,0.643
			s1.003-0.214,1.319-0.643c0.316-0.43,0.475-1.025,0.475-1.788c0-0.754-0.158-1.347-0.475-1.78s-0.756-0.65-1.319-0.65
			s-1.003,0.215-1.319,0.643c-0.316,0.43-0.475,1.029-0.475,1.801C215.079,404.824,215.237,405.416,215.554,405.846z"/>
		<path d="M223.62,410.076l-0.546-0.883c0.962-0.053,1.627-0.22,1.995-0.501c0.368-0.282,0.553-0.665,0.553-1.151v-0.805
			c-0.39,0.537-0.962,0.805-1.716,0.805c-0.78,0-1.428-0.303-1.943-0.909c-0.517-0.606-0.773-1.465-0.773-2.574
			c0-1.074,0.253-1.922,0.76-2.542c0.507-0.619,1.172-0.929,1.996-0.929c0.693,0,1.252,0.233,1.677,0.702v-0.547h1.131v6.371
			c0,1.014-0.271,1.746-0.812,2.196S224.625,410.016,223.62,410.076z M224.14,406.488c0.277,0,0.553-0.084,0.826-0.253
			c0.272-0.169,0.491-0.396,0.656-0.683v-3.042c-0.156-0.26-0.377-0.472-0.663-0.638c-0.286-0.164-0.559-0.246-0.819-0.246
			c-0.589,0-1.038,0.21-1.345,0.631c-0.309,0.42-0.462,1.02-0.462,1.8c0,0.754,0.167,1.348,0.501,1.781
			C223.167,406.271,223.603,406.488,224.14,406.488z"/>
		<path d="M228.897,407.386v-6.644h1.131v0.871c0.312-0.684,0.836-1.026,1.573-1.026c0.416,0,0.758,0.112,1.026,0.338l-0.169,1.065
			c-0.277-0.189-0.594-0.285-0.948-0.285c-0.391,0-0.735,0.151-1.034,0.455c-0.299,0.303-0.448,0.797-0.448,1.481v3.744H228.897z"/>
		<path d="M237.503,407.386v-0.61c-0.546,0.511-1.174,0.766-1.885,0.766c-0.702,0-1.263-0.191-1.684-0.578
			c-0.42-0.385-0.63-0.938-0.63-1.657s0.238-1.265,0.715-1.638s1.065-0.559,1.768-0.559c0.642,0,1.214,0.143,1.716,0.428v-0.467
			c0-0.555-0.123-0.943-0.37-1.164s-0.604-0.332-1.072-0.332c-0.668,0-1.313,0.222-1.938,0.664l-0.325-0.949
			c0.711-0.469,1.513-0.702,2.405-0.702c1.577,0,2.366,0.798,2.366,2.392v4.407H237.503z M235.787,406.541
			c0.65,0,1.222-0.291,1.716-0.871v-1.145c-0.477-0.294-0.996-0.441-1.56-0.441c-0.46,0-0.837,0.104-1.131,0.312
			c-0.295,0.208-0.442,0.512-0.442,0.91c0,0.373,0.124,0.672,0.371,0.897C234.987,406.428,235.337,406.541,235.787,406.541z"/>
		<path d="M248.319,407.386v-4.03c0-1.152-0.446-1.729-1.339-1.729c-0.425,0-0.77,0.162-1.034,0.487
			c-0.264,0.325-0.396,0.752-0.396,1.28v3.991h-1.131v-4.03c0-1.152-0.441-1.729-1.326-1.729c-0.441,0-0.791,0.154-1.046,0.461
			c-0.256,0.309-0.384,0.727-0.384,1.255v4.043h-1.131v-6.644h1.131v0.625c0.39-0.521,0.971-0.78,1.742-0.78
			c0.372,0,0.717,0.085,1.033,0.253c0.316,0.17,0.565,0.41,0.748,0.722c0.424-0.649,1.065-0.975,1.924-0.975
			c0.693,0,1.256,0.212,1.689,0.637s0.65,1.027,0.65,1.808v4.354H248.319z"/>
		<path d="M259.317,407.386v-4.03c0-1.152-0.446-1.729-1.339-1.729c-0.425,0-0.77,0.162-1.034,0.487
			c-0.264,0.325-0.396,0.752-0.396,1.28v3.991h-1.131v-4.03c0-1.152-0.441-1.729-1.326-1.729c-0.441,0-0.791,0.154-1.046,0.461
			c-0.256,0.309-0.384,0.727-0.384,1.255v4.043h-1.131v-6.644h1.131v0.625c0.39-0.521,0.971-0.78,1.742-0.78
			c0.372,0,0.717,0.085,1.033,0.253c0.316,0.17,0.565,0.41,0.748,0.722c0.424-0.649,1.065-0.975,1.924-0.975
			c0.693,0,1.256,0.212,1.689,0.637s0.65,1.027,0.65,1.808v4.354H259.317z"/>
		<path d="M264.895,407.541c-0.85,0-1.521-0.305-2.016-0.916s-0.74-1.463-0.74-2.555s0.249-1.945,0.747-2.561
			s1.185-0.923,2.061-0.923c1.179,0,1.954,0.516,2.327,1.547l-1.066,0.39c-0.226-0.589-0.642-0.884-1.248-0.884
			c-0.555,0-0.971,0.212-1.248,0.638c-0.277,0.424-0.416,1.021-0.416,1.793c0,0.764,0.139,1.354,0.416,1.775
			c0.277,0.42,0.681,0.63,1.209,0.63c0.693,0,1.145-0.329,1.353-0.987l1.053,0.351c-0.165,0.546-0.457,0.966-0.878,1.261
			C266.027,407.395,265.51,407.541,264.895,407.541z"/>
		<path d="M273.722,406.612c-0.529,0.62-1.244,0.929-2.146,0.929s-1.616-0.307-2.145-0.922c-0.529-0.615-0.793-1.465-0.793-2.549
			c0-1.083,0.264-1.935,0.793-2.555c0.528-0.619,1.243-0.929,2.145-0.929s1.616,0.308,2.146,0.923
			c0.528,0.615,0.793,1.465,0.793,2.548S274.25,405.992,273.722,406.612z M270.257,405.846c0.316,0.429,0.756,0.643,1.319,0.643
			s1.003-0.214,1.319-0.643c0.316-0.43,0.475-1.025,0.475-1.788c0-0.754-0.158-1.347-0.475-1.78s-0.756-0.65-1.319-0.65
			s-1.003,0.215-1.319,0.643c-0.316,0.43-0.475,1.029-0.475,1.801C269.782,404.824,269.94,405.416,270.257,405.846z"/>
		<path d="M278.635,407.541c-0.841,0-1.508-0.311-2.002-0.936c-0.494-0.623-0.74-1.473-0.74-2.548c0-1.083,0.249-1.933,0.747-2.548
			s1.163-0.923,1.995-0.923c0.65,0,1.209,0.208,1.678,0.624v-2.678l1.131-0.533v9.386h-1.131v-0.521
			C279.879,407.316,279.319,407.541,278.635,407.541z M278.791,406.488c0.658,0,1.166-0.299,1.521-0.896v-3.12
			c-0.355-0.563-0.863-0.845-1.521-0.845c-0.563,0-0.997,0.21-1.3,0.631c-0.304,0.42-0.455,1.02-0.455,1.8
			c0,0.702,0.158,1.282,0.475,1.742S278.254,406.488,278.791,406.488z"/>
		<path d="M286.148,407.541c-0.901,0-1.618-0.322-2.151-0.968s-0.799-1.483-0.799-2.516c0-1.083,0.269-1.933,0.806-2.548
			s1.252-0.923,2.145-0.923c0.798,0,1.454,0.267,1.97,0.8s0.773,1.318,0.773,2.359c0,0.242-0.013,0.494-0.039,0.754h-4.498
			c0.044,0.606,0.232,1.094,0.565,1.463c0.334,0.367,0.752,0.552,1.255,0.552c0.555,0,1.031-0.199,1.43-0.599l0.689,0.768
			C287.722,407.256,287.007,407.541,286.148,407.541z M284.342,403.537h3.406c-0.009-0.684-0.172-1.18-0.487-1.488
			c-0.317-0.307-0.688-0.461-1.112-0.461c-0.511,0-0.932,0.162-1.261,0.487S284.376,402.888,284.342,403.537z"/>
	</g>
</g>
<g id="Ebene_1">
</g>
</svg>
