<?xml version="1.0" encoding="utf-8"?>
<!-- Generator: Adobe Illustrator 22.0.1, SVG Export Plug-In . SVG Version: 6.00 Build 0)  -->
<svg version="1.1" xmlns="http://www.w3.org/2000/svg" xmlns:xlink="http://www.w3.org/1999/xlink" x="0px" y="0px"
	 viewBox="0 0 440 326.667" enable-background="new 0 0 440 326.667" xml:space="preserve">
<g id="Ebene_2">
	<rect x="14" y="8" fill="#EDEDED" width="154" height="84"/>
	<rect x="348" y="78" fill="#EDEDED" width="83" height="123"/>
	<line fill="none" stroke="#000000" stroke-width="3" stroke-miterlimit="10" x1="317" y1="169.5" x2="221.5" y2="169.5"/>
	<line fill="none" stroke="#000000" stroke-width="3" stroke-miterlimit="10" x1="417.978" y1="99.5" x2="361.978" y2="99.5"/>
	<line fill="none" stroke="#000000" stroke-width="3" stroke-miterlimit="10" x1="417.978" y1="115.5" x2="361.978" y2="115.5"/>
	<line fill="none" stroke="#000000" stroke-width="3" stroke-miterlimit="10" x1="417.978" y1="131.5" x2="361.978" y2="131.5"/>
	<polygon fill="none" stroke="#000000" stroke-width="3" stroke-miterlimit="10" points="221.5,158.5 221.5,180.5 207.5,169.5 	"/>
	<g>
		<path fill="none" stroke="#000000" stroke-width="3" stroke-miterlimit="10" d="M81.569,111.643c0-3.849,0-7.045,0-10.673
			c-25.708,0-51.211,0-76.982,0c0-33.785,0-67.134,0-100.826c57.169,0,114.307,0,171.855,0c0,33.386,0,66.826,0,100.657
			c-26.583,0-53.136,0-80.025,0c0,3.679,0,6.973,0,10.843c9.792,0,19.5,0.033,29.207-0.012c6.353-0.029,11.587,2.021,14.946,7.713
			c0.338,0.573,0.419,1.297,0.737,2.333c-35.066,0-69.762,0-104.618,0c2.288-6.632,7.21-9.919,14.862-10.01
			c8.427-0.1,16.856-0.024,25.284-0.025C78.287,111.643,79.74,111.643,81.569,111.643z M13.822,8.478c0,28.262,0,56.249,0,84.254
			c51.557,0,102.793,0,153.967,0c0-28.289,0-56.273,0-84.254C116.262,8.478,65.154,8.478,13.822,8.478z"/>
	</g>
	<rect x="14" y="177" fill="#EDEDED" width="154" height="84"/>
	<g>
		<path fill="none" stroke="#000000" stroke-width="3" stroke-miterlimit="10" d="M81.569,280.643c0-3.849,0-7.045,0-10.673
			c-25.708,0-51.211,0-76.982,0c0-33.785,0-67.134,0-100.826c57.169,0,114.307,0,171.855,0c0,33.386,0,66.826,0,100.657
			c-26.583,0-53.136,0-80.025,0c0,3.679,0,6.973,0,10.843c9.792,0,19.5,0.033,29.207-0.012c6.353-0.029,11.587,2.021,14.946,7.713
			c0.338,0.573,0.419,1.297,0.737,2.333c-35.066,0-69.762,0-104.618,0c2.288-6.632,7.21-9.919,14.862-10.01
			c8.427-0.1,16.856-0.024,25.284-0.025C78.287,280.643,79.74,280.643,81.569,280.643z M13.822,177.478c0,28.262,0,56.249,0,84.254
			c51.557,0,102.793,0,153.967,0c0-28.289,0-56.273,0-84.254C116.262,177.478,65.154,177.478,13.822,177.478z"/>
	</g>
	<path fill="none" stroke="#000000" stroke-width="3" stroke-miterlimit="10" d="M348.889,79c0,40.924,0,81.449,0,122
		c27.518,0,54.864,0,82.178,0c0-40.963,0-81.484,0-122C403.564,79,376.286,79,348.889,79z"/>
	<path fill="none" stroke="#000000" stroke-width="3" stroke-miterlimit="10" d="M246.889,191c0,19.456,0,38.722,0,58
		c14.101,0,28.114,0,42.111,0c0-19.474,0-38.738,0-58C274.907,191,260.928,191,246.889,191z"/>
	<path fill="none" stroke="#000000" stroke-width="3" stroke-miterlimit="10" d="M246.889,5c0,19.456,0,38.722,0,58
		c14.101,0,28.114,0,42.111,0c0-19.474,0-38.738,0-58C274.907,5,260.928,5,246.889,5z"/>
	<g>
		<path d="M350.946,220.265c-0.775,0-1.448-0.189-2.019-0.568c-0.571-0.379-0.961-0.869-1.17-1.47l1.072-0.392
			c0.191,0.418,0.475,0.75,0.849,0.993c0.375,0.244,0.806,0.366,1.294,0.366c0.558,0,0.998-0.132,1.32-0.398
			c0.322-0.266,0.483-0.647,0.483-1.144c0-0.479-0.181-0.862-0.542-1.15c-0.362-0.288-0.869-0.549-1.522-0.784
			c-0.314-0.113-0.573-0.213-0.778-0.3c-0.204-0.087-0.439-0.211-0.705-0.373c-0.267-0.161-0.478-0.327-0.634-0.497
			c-0.157-0.17-0.29-0.383-0.399-0.641c-0.108-0.257-0.163-0.538-0.163-0.843c0-0.636,0.253-1.172,0.758-1.607
			c0.506-0.436,1.189-0.653,2.052-0.653c0.706,0,1.294,0.15,1.765,0.451s0.775,0.695,0.915,1.183l-1.046,0.353
			c-0.122-0.27-0.331-0.492-0.627-0.667c-0.297-0.174-0.658-0.261-1.085-0.261c-0.479,0-0.858,0.106-1.137,0.32
			c-0.279,0.214-0.418,0.508-0.418,0.882c0,0.201,0.05,0.383,0.15,0.549c0.1,0.166,0.257,0.313,0.47,0.444
			c0.214,0.131,0.412,0.235,0.595,0.313c0.184,0.079,0.436,0.179,0.758,0.301c0.401,0.148,0.732,0.29,0.993,0.425
			c0.262,0.135,0.545,0.316,0.85,0.542s0.536,0.507,0.692,0.843c0.157,0.335,0.235,0.717,0.235,1.144
			c0,0.819-0.278,1.463-0.836,1.934C352.559,220.029,351.835,220.265,350.946,220.265z"/>
		<path d="M358.487,220.265c-0.906,0-1.627-0.324-2.163-0.974c-0.535-0.649-0.804-1.492-0.804-2.529
			c0-1.089,0.271-1.942,0.811-2.562c0.54-0.618,1.259-0.928,2.156-0.928c0.802,0,1.462,0.268,1.979,0.804
			c0.519,0.536,0.778,1.327,0.778,2.372c0,0.244-0.014,0.497-0.039,0.758h-4.522c0.044,0.61,0.233,1.1,0.568,1.47
			c0.336,0.371,0.756,0.556,1.262,0.556c0.558,0,1.036-0.2,1.438-0.601l0.692,0.771C360.068,219.977,359.35,220.265,358.487,220.265
			z M356.671,216.24h3.424c-0.009-0.688-0.172-1.187-0.49-1.497c-0.318-0.309-0.69-0.464-1.117-0.464
			c-0.514,0-0.937,0.164-1.268,0.49S356.705,215.586,356.671,216.24z"/>
		<path d="M362.944,220.108v-6.678h1.137v0.876c0.313-0.688,0.841-1.033,1.581-1.033c0.418,0,0.763,0.113,1.032,0.34l-0.17,1.072
			c-0.278-0.192-0.597-0.288-0.953-0.288c-0.393,0-0.739,0.152-1.039,0.458c-0.301,0.305-0.451,0.801-0.451,1.49v3.764H362.944z"/>
		<path d="M369.817,220.108l-2.443-6.678h1.149l1.582,4.457c0.112,0.331,0.183,0.549,0.209,0.653
			c0.025-0.104,0.096-0.322,0.209-0.653l1.555-4.457h1.137l-2.443,6.678H369.817z"/>
		<path d="M377.293,220.265c-0.906,0-1.627-0.324-2.163-0.974c-0.535-0.649-0.804-1.492-0.804-2.529
			c0-1.089,0.271-1.942,0.811-2.562c0.54-0.618,1.259-0.928,2.156-0.928c0.802,0,1.462,0.268,1.979,0.804
			c0.519,0.536,0.778,1.327,0.778,2.372c0,0.244-0.014,0.497-0.039,0.758h-4.522c0.044,0.61,0.233,1.1,0.568,1.47
			c0.336,0.371,0.756,0.556,1.262,0.556c0.558,0,1.036-0.2,1.438-0.601l0.692,0.771
			C378.874,219.977,378.155,220.265,377.293,220.265z M375.477,216.24h3.424c-0.009-0.688-0.172-1.187-0.49-1.497
			c-0.318-0.309-0.69-0.464-1.117-0.464c-0.514,0-0.937,0.164-1.268,0.49S375.511,215.586,375.477,216.24z"/>
		<path d="M381.749,220.108v-6.678h1.137v0.876c0.313-0.688,0.841-1.033,1.581-1.033c0.418,0,0.763,0.113,1.032,0.34l-0.17,1.072
			c-0.278-0.192-0.597-0.288-0.953-0.288c-0.393,0-0.739,0.152-1.039,0.458c-0.301,0.305-0.451,0.801-0.451,1.49v3.764H381.749z"/>
	</g>
	<g>
		<path d="M247.085,270.108v-8.913l1.137-0.523v3.45c0.409-0.566,0.984-0.85,1.725-0.85c0.784,0,1.379,0.237,1.784,0.712
			s0.607,1.235,0.607,2.28v3.842h-1.137v-4.038c0-0.601-0.129-1.043-0.386-1.327c-0.257-0.283-0.607-0.425-1.052-0.425
			c-1.028,0-1.542,0.575-1.542,1.725v4.064H247.085z"/>
		<path d="M256.245,270.265c-0.94,0-1.411-0.531-1.411-1.594v-4.248h-1.085v-0.993h1.085v-2.208l1.137-0.549v2.757h1.647v0.993
			h-1.647v3.869c0,0.296,0.048,0.522,0.145,0.679c0.096,0.157,0.278,0.235,0.549,0.235c0.296,0,0.627-0.118,0.993-0.353
			l-0.131,1.111C257.143,270.165,256.716,270.265,256.245,270.265z"/>
		<path d="M267.158,270.108v-4.051c0-1.159-0.449-1.738-1.347-1.738c-0.427,0-0.773,0.164-1.039,0.49s-0.398,0.756-0.398,1.287
			v4.012h-1.137v-4.051c0-1.159-0.444-1.738-1.333-1.738c-0.444,0-0.795,0.155-1.052,0.464c-0.257,0.31-0.386,0.73-0.386,1.261
			v4.064h-1.137v-6.678h1.137v0.627c0.392-0.523,0.976-0.784,1.751-0.784c0.375,0,0.721,0.085,1.039,0.255s0.568,0.412,0.752,0.725
			c0.427-0.653,1.071-0.98,1.934-0.98c0.697,0,1.264,0.214,1.699,0.641s0.653,1.032,0.653,1.816v4.378H267.158z"/>
		<path d="M270.451,270.108v-8.9l1.137-0.536v9.436H270.451z"/>
	</g>
	<g>
		<path d="M260.389,230.441c0-1.178,0.169-2.253,0.509-3.226c0.339-0.973,0.83-1.825,1.473-2.557
			c0.642-0.732,1.285-1.348,1.928-1.848c0.642-0.499,1.409-1.008,2.302-1.526c0.821-0.499,1.463-0.924,1.928-1.272
			c0.464-0.348,0.897-0.817,1.299-1.406c0.402-0.589,0.603-1.214,0.603-1.874c0-0.91-0.335-1.669-1.004-2.276
			c-0.67-0.607-1.558-0.91-2.664-0.91c-2.071,0-3.4,0.92-3.989,2.758l-2.088-0.937c0.374-1.178,1.115-2.137,2.222-2.878
			c1.106-0.741,2.418-1.111,3.936-1.111c1.856,0,3.32,0.495,4.391,1.486c1.071,0.991,1.607,2.299,1.607,3.923
			c0,0.643-0.098,1.241-0.294,1.794c-0.197,0.554-0.433,1.027-0.71,1.419c-0.277,0.393-0.674,0.803-1.191,1.232
			c-0.518,0.428-0.977,0.772-1.379,1.031c-0.402,0.259-0.942,0.594-1.62,1.004c-1.321,0.768-2.361,1.526-3.119,2.276
			c-0.759,0.749-1.237,1.624-1.433,2.624H273v2.276H260.389z"/>
	</g>
	<g>
		<path d="M79.681,235.534c0-1.684,0.242-3.221,0.728-4.612c0.484-1.391,1.187-2.609,2.105-3.655
			c0.918-1.046,1.837-1.926,2.756-2.641c0.918-0.714,2.015-1.441,3.291-2.182c1.174-0.714,2.092-1.32,2.756-1.818
			c0.663-0.498,1.282-1.167,1.856-2.009c0.574-0.842,0.861-1.735,0.861-2.679c0-1.301-0.479-2.386-1.436-3.253
			c-0.957-0.867-2.227-1.301-3.809-1.301c-2.96,0-4.86,1.314-5.702,3.942l-2.985-1.34c0.535-1.684,1.594-3.055,3.177-4.114
			c1.581-1.059,3.457-1.588,5.626-1.588c2.653,0,4.746,0.708,6.276,2.124c1.531,1.417,2.297,3.286,2.297,5.607
			c0,0.918-0.141,1.773-0.421,2.564c-0.281,0.792-0.619,1.468-1.015,2.029c-0.396,0.562-0.963,1.148-1.703,1.761
			c-0.74,0.612-1.396,1.104-1.971,1.473c-0.574,0.371-1.347,0.849-2.315,1.436c-1.889,1.097-3.375,2.182-4.459,3.253
			c-1.085,1.071-1.768,2.322-2.048,3.75h14.161v3.253H79.681z"/>
	</g>
	<g>
		<path d="M265.814,42.933V28.912h-2.94v-1.483c1.893,0,3.074-0.695,3.543-2.085H268v17.59H265.814z"/>
	</g>
	<g>
		<path d="M88.011,66.534V45.177h-4.478v-2.258c2.883,0,4.682-1.058,5.396-3.176h2.411v26.792H88.011z"/>
	</g>
	<g>
		<path d="M247.085,82.108v-8.913l1.137-0.523v3.45c0.409-0.566,0.984-0.85,1.725-0.85c0.784,0,1.379,0.237,1.784,0.712
			s0.607,1.235,0.607,2.28v3.842h-1.137V78.07c0-0.601-0.129-1.043-0.386-1.327c-0.257-0.283-0.607-0.425-1.052-0.425
			c-1.028,0-1.542,0.575-1.542,1.725v4.064H247.085z"/>
		<path d="M256.245,82.265c-0.94,0-1.411-0.531-1.411-1.594v-4.248h-1.085V75.43h1.085v-2.208l1.137-0.549v2.757h1.647v0.993h-1.647
			v3.869c0,0.296,0.048,0.522,0.145,0.679c0.096,0.157,0.278,0.235,0.549,0.235c0.296,0,0.627-0.118,0.993-0.353l-0.131,1.111
			C257.143,82.165,256.716,82.265,256.245,82.265z"/>
		<path d="M267.158,82.108v-4.051c0-1.159-0.449-1.738-1.347-1.738c-0.427,0-0.773,0.164-1.039,0.49s-0.398,0.756-0.398,1.287v4.012
			h-1.137v-4.051c0-1.159-0.444-1.738-1.333-1.738c-0.444,0-0.795,0.155-1.052,0.464c-0.257,0.31-0.386,0.73-0.386,1.261v4.064
			h-1.137V75.43h1.137v0.627c0.392-0.523,0.976-0.784,1.751-0.784c0.375,0,0.721,0.085,1.039,0.255s0.568,0.412,0.752,0.725
			c0.427-0.653,1.071-0.98,1.934-0.98c0.697,0,1.264,0.214,1.699,0.641s0.653,1.032,0.653,1.816v4.378H267.158z"/>
		<path d="M270.451,82.108v-8.9l1.137-0.536v9.436H270.451z"/>
	</g>
	<g>
		<path d="M9.137,317.813l-0.549-0.889c0.967-0.052,1.636-0.22,2.006-0.503c0.37-0.283,0.556-0.669,0.556-1.157v-0.81
			c-0.393,0.54-0.968,0.81-1.726,0.81c-0.784,0-1.436-0.305-1.953-0.915c-0.519-0.61-0.778-1.473-0.778-2.588
			c0-1.08,0.255-1.932,0.765-2.555s1.179-0.935,2.006-0.935c0.697,0,1.259,0.235,1.687,0.706v-0.549h1.137v6.404
			c0,1.02-0.272,1.755-0.817,2.208C10.925,317.495,10.147,317.752,9.137,317.813z M9.659,314.206c0.278,0,0.556-0.085,0.83-0.255
			s0.494-0.398,0.66-0.686v-3.058c-0.157-0.261-0.379-0.475-0.667-0.64c-0.287-0.166-0.562-0.249-0.823-0.249
			c-0.593,0-1.043,0.211-1.353,0.634c-0.31,0.423-0.464,1.026-0.464,1.81c0,0.758,0.168,1.355,0.503,1.791
			S9.119,314.206,9.659,314.206z"/>
		<path d="M18.271,315.108v-0.614c-0.549,0.514-1.181,0.771-1.896,0.771c-0.705,0-1.27-0.194-1.692-0.582s-0.634-0.943-0.634-1.666
			s0.24-1.272,0.719-1.647c0.479-0.375,1.072-0.562,1.777-0.562c0.645,0,1.22,0.144,1.726,0.432v-0.471
			c0-0.558-0.124-0.947-0.373-1.169c-0.248-0.222-0.607-0.333-1.078-0.333c-0.671,0-1.319,0.222-1.947,0.667l-0.326-0.954
			c0.714-0.47,1.521-0.706,2.418-0.706c1.585,0,2.378,0.802,2.378,2.405v4.43H18.271z M16.546,314.258
			c0.653,0,1.229-0.292,1.726-0.875v-1.15c-0.479-0.296-1.002-0.444-1.568-0.444c-0.462,0-0.841,0.104-1.137,0.313
			c-0.297,0.209-0.444,0.514-0.444,0.915c0,0.375,0.124,0.675,0.372,0.901C15.742,314.146,16.093,314.258,16.546,314.258z"/>
		<path d="M25.433,315.108v-4.038c0-0.601-0.129-1.043-0.386-1.327c-0.257-0.283-0.607-0.425-1.052-0.425
			c-1.028,0-1.542,0.575-1.542,1.725v4.064h-1.137v-6.678h1.137v0.68c0.409-0.558,0.984-0.836,1.725-0.836
			c0.784,0,1.379,0.237,1.784,0.712s0.607,1.235,0.607,2.28v3.842H25.433z"/>
		<path d="M28.412,315.108v-0.836l3.477-4.835h-3.215v-1.006h4.639v0.811l-3.489,4.848H33.3v1.02H28.412z"/>
		<path d="M37.848,315.265c-0.906,0-1.627-0.324-2.163-0.974c-0.535-0.649-0.804-1.492-0.804-2.529c0-1.089,0.271-1.942,0.811-2.562
			c0.54-0.618,1.259-0.928,2.156-0.928c0.802,0,1.462,0.268,1.979,0.804c0.519,0.536,0.778,1.327,0.778,2.372
			c0,0.244-0.014,0.497-0.039,0.758h-4.522c0.044,0.61,0.233,1.1,0.568,1.47c0.336,0.371,0.756,0.556,1.262,0.556
			c0.558,0,1.036-0.2,1.438-0.601l0.692,0.771C39.429,314.977,38.71,315.265,37.848,315.265z M36.031,311.24h3.424
			c-0.009-0.688-0.172-1.187-0.49-1.497c-0.318-0.309-0.69-0.464-1.117-0.464c-0.514,0-0.937,0.164-1.268,0.49
			S36.065,310.586,36.031,311.24z"/>
		<path d="M48.236,315.265c-0.775,0-1.448-0.189-2.019-0.568c-0.571-0.379-0.961-0.869-1.17-1.47l1.072-0.392
			c0.191,0.418,0.475,0.75,0.849,0.993c0.375,0.244,0.806,0.366,1.294,0.366c0.558,0,0.998-0.132,1.32-0.398
			c0.322-0.266,0.483-0.647,0.483-1.144c0-0.479-0.181-0.862-0.542-1.15c-0.362-0.288-0.869-0.549-1.522-0.784
			c-0.314-0.113-0.573-0.213-0.778-0.3c-0.204-0.087-0.439-0.211-0.705-0.373c-0.267-0.161-0.478-0.327-0.634-0.497
			c-0.157-0.17-0.29-0.383-0.399-0.641c-0.108-0.257-0.163-0.538-0.163-0.843c0-0.636,0.253-1.172,0.758-1.607
			c0.506-0.436,1.189-0.653,2.052-0.653c0.706,0,1.294,0.15,1.765,0.451s0.775,0.695,0.915,1.183l-1.046,0.353
			c-0.122-0.27-0.331-0.492-0.627-0.667c-0.297-0.174-0.658-0.261-1.085-0.261c-0.479,0-0.858,0.106-1.137,0.32
			c-0.279,0.214-0.418,0.508-0.418,0.882c0,0.201,0.05,0.383,0.15,0.549c0.1,0.166,0.257,0.313,0.47,0.444
			c0.214,0.131,0.412,0.235,0.595,0.313c0.184,0.079,0.436,0.179,0.758,0.301c0.401,0.148,0.732,0.29,0.993,0.425
			c0.262,0.135,0.545,0.316,0.85,0.542s0.536,0.507,0.692,0.843c0.157,0.335,0.235,0.717,0.235,1.144
			c0,0.819-0.278,1.463-0.836,1.934C49.849,315.029,49.125,315.265,48.236,315.265z"/>
		<path d="M55.777,315.265c-0.906,0-1.627-0.324-2.163-0.974c-0.535-0.649-0.804-1.492-0.804-2.529c0-1.089,0.271-1.942,0.811-2.562
			c0.54-0.618,1.259-0.928,2.156-0.928c0.802,0,1.462,0.268,1.979,0.804c0.519,0.536,0.778,1.327,0.778,2.372
			c0,0.244-0.014,0.497-0.039,0.758h-4.522c0.044,0.61,0.233,1.1,0.568,1.47c0.336,0.371,0.756,0.556,1.262,0.556
			c0.558,0,1.036-0.2,1.438-0.601l0.692,0.771C57.358,314.977,56.64,315.265,55.777,315.265z M53.961,311.24h3.424
			c-0.009-0.688-0.172-1.187-0.49-1.497c-0.318-0.309-0.69-0.464-1.117-0.464c-0.514,0-0.937,0.164-1.268,0.49
			S53.995,310.586,53.961,311.24z"/>
		<path d="M61.318,307.012c-0.139,0.135-0.309,0.203-0.509,0.203c-0.201,0-0.368-0.069-0.504-0.209
			c-0.135-0.139-0.202-0.305-0.202-0.497c0-0.2,0.069-0.373,0.209-0.516c0.14-0.144,0.305-0.216,0.497-0.216
			c0.2,0,0.37,0.072,0.509,0.216c0.14,0.144,0.21,0.316,0.21,0.516C61.528,306.709,61.458,306.877,61.318,307.012z M60.247,315.108
			v-6.678h1.137v6.678H60.247z"/>
		<path d="M65.356,315.265c-0.94,0-1.411-0.531-1.411-1.594v-4.248H62.86v-0.993h1.085v-2.208l1.137-0.549v2.757h1.647v0.993h-1.647
			v3.869c0,0.296,0.048,0.522,0.145,0.679c0.096,0.157,0.278,0.235,0.549,0.235c0.296,0,0.627-0.118,0.993-0.353l-0.131,1.111
			C66.254,315.165,65.827,315.265,65.356,315.265z"/>
		<path d="M70.885,315.265c-0.906,0-1.627-0.324-2.163-0.974c-0.535-0.649-0.804-1.492-0.804-2.529c0-1.089,0.271-1.942,0.811-2.562
			c0.54-0.618,1.259-0.928,2.156-0.928c0.802,0,1.462,0.268,1.979,0.804c0.519,0.536,0.778,1.327,0.778,2.372
			c0,0.244-0.014,0.497-0.039,0.758h-4.522c0.044,0.61,0.233,1.1,0.568,1.47c0.336,0.371,0.756,0.556,1.262,0.556
			c0.558,0,1.036-0.2,1.438-0.601l0.692,0.771C72.466,314.977,71.747,315.265,70.885,315.265z M69.068,311.24h3.424
			c-0.009-0.688-0.172-1.187-0.49-1.497c-0.318-0.309-0.69-0.464-1.117-0.464c-0.514,0-0.937,0.164-1.268,0.49
			S69.103,310.586,69.068,311.24z"/>
		<path d="M79.536,315.108l-1.712-6.678h1.123l1.02,4.483c0.009,0.052,0.03,0.161,0.065,0.327s0.061,0.292,0.078,0.379
			c0.018-0.122,0.074-0.357,0.17-0.706l1.255-4.483h0.941l1.254,4.483l0.184,0.731c0.017-0.078,0.041-0.2,0.071-0.366
			s0.055-0.288,0.072-0.366l1.006-4.483h1.124l-1.712,6.678h-1.02l-1.215-3.96c-0.122-0.392-0.205-0.684-0.249-0.875
			c-0.087,0.366-0.165,0.658-0.234,0.875l-1.203,3.96H79.536z"/>
		<path d="M91.807,315.108v-0.64c-0.409,0.531-0.972,0.797-1.686,0.797c-0.811,0-1.418-0.235-1.823-0.706
			c-0.405-0.471-0.607-1.229-0.607-2.274v-3.855h1.137v4.025c0,0.601,0.129,1.043,0.386,1.326c0.257,0.283,0.607,0.425,1.052,0.425
			c1.028,0,1.542-0.575,1.542-1.725v-4.051h1.137v6.678H91.807z"/>
		<path d="M95.114,315.108v-6.678h1.137v0.876c0.313-0.688,0.841-1.033,1.581-1.033c0.418,0,0.763,0.113,1.032,0.34l-0.17,1.072
			c-0.278-0.192-0.597-0.288-0.953-0.288c-0.393,0-0.739,0.152-1.039,0.458c-0.301,0.305-0.451,0.801-0.451,1.49v3.764H95.114z"/>
		<path d="M102.562,315.265c-0.846,0-1.516-0.313-2.013-0.941c-0.496-0.627-0.745-1.481-0.745-2.562
			c0-1.089,0.251-1.942,0.752-2.562c0.501-0.618,1.169-0.928,2.006-0.928c0.653,0,1.215,0.209,1.686,0.627v-2.692l1.137-0.536v9.436
			h-1.137v-0.523C103.812,315.038,103.251,315.265,102.562,315.265z M102.72,314.206c0.661,0,1.171-0.3,1.528-0.902v-3.136
			c-0.357-0.566-0.867-0.85-1.528-0.85c-0.567,0-1.003,0.211-1.308,0.634c-0.305,0.423-0.457,1.026-0.457,1.81
			c0,0.706,0.159,1.29,0.477,1.751C101.75,313.976,102.179,314.206,102.72,314.206z"/>
		<path d="M110.116,315.265c-0.906,0-1.627-0.324-2.163-0.974c-0.535-0.649-0.804-1.492-0.804-2.529
			c0-1.089,0.271-1.942,0.811-2.562c0.54-0.618,1.259-0.928,2.156-0.928c0.802,0,1.462,0.268,1.979,0.804
			c0.519,0.536,0.778,1.327,0.778,2.372c0,0.244-0.014,0.497-0.039,0.758h-4.522c0.044,0.61,0.233,1.1,0.568,1.47
			c0.336,0.371,0.756,0.556,1.262,0.556c0.558,0,1.036-0.2,1.438-0.601l0.692,0.771
			C111.697,314.977,110.979,315.265,110.116,315.265z M108.3,311.24h3.424c-0.009-0.688-0.172-1.187-0.49-1.497
			c-0.318-0.309-0.69-0.464-1.117-0.464c-0.514,0-0.937,0.164-1.268,0.49S108.334,310.586,108.3,311.24z"/>
		<path d="M121.473,315.108v-0.614c-0.549,0.514-1.181,0.771-1.896,0.771c-0.705,0-1.27-0.194-1.692-0.582s-0.634-0.943-0.634-1.666
			s0.24-1.272,0.719-1.647c0.479-0.375,1.072-0.562,1.777-0.562c0.645,0,1.22,0.144,1.726,0.432v-0.471
			c0-0.558-0.124-0.947-0.373-1.169c-0.248-0.222-0.607-0.333-1.078-0.333c-0.671,0-1.319,0.222-1.947,0.667l-0.326-0.954
			c0.714-0.47,1.521-0.706,2.418-0.706c1.585,0,2.378,0.802,2.378,2.405v4.43H121.473z M119.747,314.258
			c0.653,0,1.229-0.292,1.726-0.875v-1.15c-0.479-0.296-1.002-0.444-1.568-0.444c-0.462,0-0.841,0.104-1.137,0.313
			c-0.297,0.209-0.444,0.514-0.444,0.915c0,0.375,0.124,0.675,0.372,0.901C118.943,314.146,119.294,314.258,119.747,314.258z"/>
		<path d="M128.568,315.108v-0.64c-0.409,0.531-0.972,0.797-1.686,0.797c-0.811,0-1.418-0.235-1.823-0.706
			c-0.405-0.471-0.607-1.229-0.607-2.274v-3.855h1.137v4.025c0,0.601,0.129,1.043,0.386,1.326c0.257,0.283,0.607,0.425,1.052,0.425
			c1.028,0,1.542-0.575,1.542-1.725v-4.051h1.137v6.678H128.568z"/>
		<path d="M133.848,315.265c-0.479,0-0.934-0.103-1.365-0.307s-0.782-0.477-1.052-0.817l0.81-0.692
			c0.497,0.531,1.041,0.797,1.634,0.797c0.375,0,0.675-0.072,0.902-0.216c0.226-0.144,0.34-0.355,0.34-0.634
			c0-0.209-0.083-0.398-0.249-0.568c-0.165-0.17-0.335-0.296-0.51-0.379c-0.174-0.083-0.431-0.189-0.771-0.32
			c-0.68-0.253-1.194-0.536-1.542-0.85c-0.349-0.313-0.523-0.728-0.523-1.242c0-0.54,0.212-0.969,0.634-1.287
			c0.423-0.318,0.961-0.477,1.614-0.477c0.933,0,1.682,0.335,2.248,1.006l-0.784,0.653c-0.409-0.427-0.901-0.64-1.477-0.64
			c-0.34,0-0.61,0.065-0.811,0.196c-0.2,0.131-0.301,0.314-0.301,0.549c0,0.131,0.033,0.25,0.099,0.359
			c0.065,0.109,0.183,0.211,0.353,0.307c0.17,0.096,0.305,0.168,0.405,0.216c0.1,0.048,0.285,0.124,0.556,0.229
			c0.705,0.253,1.243,0.541,1.613,0.863s0.556,0.775,0.556,1.359c0,0.593-0.214,1.057-0.641,1.392S134.58,315.265,133.848,315.265z"
			/>
		<path d="M140.056,317.813l-0.549-0.889c0.967-0.052,1.636-0.22,2.006-0.503c0.37-0.283,0.556-0.669,0.556-1.157v-0.81
			c-0.393,0.54-0.968,0.81-1.726,0.81c-0.784,0-1.436-0.305-1.953-0.915c-0.519-0.61-0.778-1.473-0.778-2.588
			c0-1.08,0.255-1.932,0.765-2.555s1.179-0.935,2.006-0.935c0.697,0,1.259,0.235,1.687,0.706v-0.549h1.137v6.404
			c0,1.02-0.272,1.755-0.817,2.208C141.844,317.495,141.066,317.752,140.056,317.813z M140.578,314.206
			c0.278,0,0.556-0.085,0.83-0.255s0.494-0.398,0.66-0.686v-3.058c-0.157-0.261-0.379-0.475-0.667-0.64
			c-0.287-0.166-0.562-0.249-0.823-0.249c-0.593,0-1.043,0.211-1.353,0.634c-0.31,0.423-0.464,1.026-0.464,1.81
			c0,0.758,0.168,1.355,0.503,1.791S140.038,314.206,140.578,314.206z"/>
		<path d="M147.936,315.265c-0.906,0-1.627-0.324-2.163-0.974c-0.535-0.649-0.804-1.492-0.804-2.529
			c0-1.089,0.271-1.942,0.811-2.562c0.54-0.618,1.259-0.928,2.156-0.928c0.802,0,1.462,0.268,1.979,0.804
			c0.519,0.536,0.778,1.327,0.778,2.372c0,0.244-0.014,0.497-0.039,0.758h-4.522c0.044,0.61,0.233,1.1,0.568,1.47
			c0.336,0.371,0.756,0.556,1.262,0.556c0.558,0,1.036-0.2,1.438-0.601l0.692,0.771
			C149.517,314.977,148.798,315.265,147.936,315.265z M146.119,311.24h3.424c-0.009-0.688-0.172-1.187-0.49-1.497
			c-0.318-0.309-0.69-0.464-1.117-0.464c-0.514,0-0.937,0.164-1.268,0.49S146.153,310.586,146.119,311.24z"/>
		<path d="M154.064,315.265c-0.94,0-1.411-0.531-1.411-1.594v-4.248h-1.085v-0.993h1.085v-2.208l1.137-0.549v2.757h1.647v0.993
			h-1.647v3.869c0,0.296,0.048,0.522,0.145,0.679c0.096,0.157,0.278,0.235,0.549,0.235c0.296,0,0.627-0.118,0.993-0.353
			l-0.131,1.111C154.962,315.165,154.535,315.265,154.064,315.265z"/>
		<path d="M160.848,315.108v-0.614c-0.549,0.514-1.181,0.771-1.896,0.771c-0.705,0-1.27-0.194-1.692-0.582s-0.634-0.943-0.634-1.666
			s0.24-1.272,0.719-1.647c0.479-0.375,1.072-0.562,1.777-0.562c0.645,0,1.22,0.144,1.726,0.432v-0.471
			c0-0.558-0.124-0.947-0.373-1.169c-0.248-0.222-0.607-0.333-1.078-0.333c-0.671,0-1.319,0.222-1.947,0.667l-0.326-0.954
			c0.714-0.47,1.521-0.706,2.418-0.706c1.585,0,2.378,0.802,2.378,2.405v4.43H160.848z M159.122,314.258
			c0.653,0,1.229-0.292,1.726-0.875v-1.15c-0.479-0.296-1.002-0.444-1.568-0.444c-0.462,0-0.841,0.104-1.137,0.313
			c-0.297,0.209-0.444,0.514-0.444,0.915c0,0.375,0.124,0.675,0.372,0.901C158.318,314.146,158.669,314.258,159.122,314.258z"/>
		<path d="M167.943,315.108v-0.64c-0.409,0.531-0.972,0.797-1.686,0.797c-0.811,0-1.418-0.235-1.823-0.706
			c-0.405-0.471-0.607-1.229-0.607-2.274v-3.855h1.137v4.025c0,0.601,0.129,1.043,0.386,1.326c0.257,0.283,0.607,0.425,1.052,0.425
			c1.028,0,1.542-0.575,1.542-1.725v-4.051h1.137v6.678H167.943z"/>
		<path d="M173.223,315.265c-0.479,0-0.934-0.103-1.365-0.307s-0.782-0.477-1.052-0.817l0.81-0.692
			c0.497,0.531,1.041,0.797,1.634,0.797c0.375,0,0.675-0.072,0.902-0.216c0.226-0.144,0.34-0.355,0.34-0.634
			c0-0.209-0.083-0.398-0.249-0.568c-0.165-0.17-0.335-0.296-0.51-0.379c-0.174-0.083-0.431-0.189-0.771-0.32
			c-0.68-0.253-1.194-0.536-1.542-0.85c-0.349-0.313-0.523-0.728-0.523-1.242c0-0.54,0.212-0.969,0.634-1.287
			c0.423-0.318,0.961-0.477,1.614-0.477c0.933,0,1.682,0.335,2.248,1.006l-0.784,0.653c-0.409-0.427-0.901-0.64-1.477-0.64
			c-0.34,0-0.61,0.065-0.811,0.196c-0.2,0.131-0.301,0.314-0.301,0.549c0,0.131,0.033,0.25,0.099,0.359
			c0.065,0.109,0.183,0.211,0.353,0.307c0.17,0.096,0.305,0.168,0.405,0.216c0.1,0.048,0.285,0.124,0.556,0.229
			c0.705,0.253,1.243,0.541,1.613,0.863s0.556,0.775,0.556,1.359c0,0.593-0.214,1.057-0.641,1.392S173.955,315.265,173.223,315.265z
			"/>
		<path d="M179.758,315.265c-0.854,0-1.528-0.307-2.025-0.921c-0.496-0.614-0.745-1.47-0.745-2.568s0.251-1.956,0.752-2.575
			c0.501-0.618,1.191-0.928,2.071-0.928c1.185,0,1.965,0.519,2.339,1.555l-1.071,0.392c-0.227-0.592-0.645-0.889-1.255-0.889
			c-0.558,0-0.976,0.213-1.254,0.641c-0.279,0.427-0.419,1.028-0.419,1.803c0,0.767,0.14,1.361,0.419,1.784
			c0.278,0.423,0.684,0.634,1.215,0.634c0.697,0,1.15-0.331,1.359-0.993l1.059,0.353c-0.166,0.549-0.46,0.972-0.883,1.268
			C180.897,315.117,180.377,315.265,179.758,315.265z"/>
		<path d="M183.914,315.108v-8.913l1.137-0.523v3.45c0.409-0.566,0.984-0.85,1.725-0.85c0.784,0,1.379,0.237,1.784,0.712
			s0.607,1.235,0.607,2.28v3.842h-1.137v-4.038c0-0.601-0.129-1.043-0.386-1.327c-0.257-0.283-0.607-0.425-1.052-0.425
			c-1.028,0-1.542,0.575-1.542,1.725v4.064H183.914z"/>
		<path d="M193.074,315.265c-0.94,0-1.411-0.531-1.411-1.594v-4.248h-1.085v-0.993h1.085v-2.208l1.137-0.549v2.757h1.647v0.993
			H192.8v3.869c0,0.296,0.048,0.522,0.145,0.679c0.096,0.157,0.278,0.235,0.549,0.235c0.296,0,0.627-0.118,0.993-0.353l-0.131,1.111
			C193.972,315.165,193.545,315.265,193.074,315.265z"/>
	</g>
	<line fill="none" stroke="#000000" stroke-width="3" stroke-miterlimit="10" x1="207.5" y1="100.5" x2="306.5" y2="100.5"/>
	<polygon fill="none" stroke="#000000" stroke-width="3" stroke-miterlimit="10" points="306.5,111.5 306.5,89.5 320.5,100.5 	"/>
	<g>
		<path d="M67.689,62.792l-16.994-6.869v-2.785l16.994-6.906v3.11l-13.052,5.171l13.052,5.135V62.792z"/>
		<path d="M125,55.923l-16.994,6.869v-3.11l13.017-5.17l-13.017-5.171v-3.11L125,53.138V55.923z"/>
	</g>
	<g>
		<path d="M67.689,231.792l-16.994-6.869v-2.785l16.994-6.906v3.11l-13.052,5.171l13.052,5.135V231.792z"/>
		<path d="M125,224.923l-16.994,6.869v-3.11l13.017-5.17l-13.017-5.171v-3.11L125,222.138V224.923z"/>
	</g>
</g>
<g id="Ebene_1">
</g>
</svg>
