<?xml version="1.0" encoding="utf-8"?>
<!-- Generator: Adobe Illustrator 22.0.1, SVG Export Plug-In . SVG Version: 6.00 Build 0)  -->
<svg version="1.1" xmlns="http://www.w3.org/2000/svg" xmlns:xlink="http://www.w3.org/1999/xlink" x="0px" y="0px"
	 viewBox="0 0 440 327.667" enable-background="new 0 0 440 327.667" xml:space="preserve">
<g id="Ebene_2">
	<path fill="none" stroke="#000000" stroke-width="3" stroke-miterlimit="10" d="M353.889,102.333c0,19.456,0,38.722,0,58
		c14.101,0,28.114,0,42.111,0c0-19.474,0-38.738,0-58C381.907,102.333,367.928,102.333,353.889,102.333z"/>
	<rect x="14" y="15.333" fill="#EDEDED" width="154" height="84"/>
	<g>
		<path fill="none" stroke="#000000" stroke-width="3" stroke-miterlimit="10" d="M81.569,118.976c0-3.849,0-7.045,0-10.673
			c-25.708,0-51.211,0-76.982,0c0-33.785,0-67.134,0-100.826c57.169,0,114.307,0,171.855,0c0,33.386,0,66.826,0,100.657
			c-26.583,0-53.136,0-80.025,0c0,3.679,0,6.973,0,10.843c9.792,0,19.5,0.033,29.207-0.012c6.353-0.029,11.587,2.021,14.946,7.713
			c0.338,0.573,0.419,1.297,0.737,2.333c-35.066,0-69.762,0-104.618,0c2.288-6.632,7.21-9.919,14.862-10.01
			c8.427-0.1,16.856-0.024,25.284-0.025C78.287,118.976,79.74,118.976,81.569,118.976z M13.822,15.811c0,28.262,0,56.249,0,84.254
			c51.557,0,102.793,0,153.967,0c0-28.289,0-56.273,0-84.254C116.262,15.811,65.154,15.811,13.822,15.811z"/>
	</g>
	<rect x="14" y="184.333" fill="#EDEDED" width="154" height="84"/>
	<g>
		<path fill="none" stroke="#000000" stroke-width="3" stroke-miterlimit="10" d="M81.569,287.976c0-3.849,0-7.045,0-10.673
			c-25.708,0-51.211,0-76.982,0c0-33.785,0-67.134,0-100.826c57.169,0,114.307,0,171.855,0c0,33.386,0,66.826,0,100.657
			c-26.583,0-53.136,0-80.025,0c0,3.679,0,6.973,0,10.843c9.792,0,19.5,0.033,29.207-0.012c6.353-0.029,11.587,2.021,14.946,7.713
			c0.338,0.573,0.419,1.297,0.737,2.333c-35.066,0-69.762,0-104.618,0c2.288-6.632,7.21-9.919,14.862-10.01
			c8.427-0.1,16.856-0.024,25.284-0.025C78.287,287.976,79.74,287.976,81.569,287.976z M13.822,184.811c0,28.262,0,56.249,0,84.254
			c51.557,0,102.793,0,153.967,0c0-28.289,0-56.273,0-84.254C116.262,184.811,65.154,184.811,13.822,184.811z"/>
	</g>
	<path fill="#FFFFFF" stroke="#000000" stroke-width="3" stroke-miterlimit="10" d="M105,243.333c0,6.206,0,12.351,0,18.5
		c18.752,0,37.387,0,56,0c0-6.212,0-12.356,0-18.5C142.259,243.333,123.67,243.333,105,243.333z"/>
	<g>
		<path d="M359.038,181.441l-2.104-3.698l-2.052,3.698h-1.268l2.718-4.731l-2.521-4.417h1.28l1.882,3.306l1.856-3.306h1.254
			l-2.509,4.352l2.744,4.796H359.038z"/>
		<path d="M370.146,181.441h-1.137v-5.62c0-0.357,0.008-0.692,0.025-1.006c-0.087,0.244-0.222,0.588-0.404,1.033l-2.51,5.75
			l-2.431-5.776c-0.209-0.505-0.34-0.836-0.392-0.993c0.025,0.235,0.039,0.566,0.039,0.993v5.62H362.2v-9.148h1.072l2.652,6.155
			l0.235,0.614c0.035-0.104,0.113-0.309,0.235-0.614l2.666-6.155h1.085V181.441z"/>
		<path d="M372.693,181.441v-9.148h1.138v8.05h4.495v1.098H372.693z"/>
	</g>
	<g>
		<path d="M11.659,321.598c-0.906,0-1.627-0.324-2.163-0.974c-0.535-0.649-0.804-1.492-0.804-2.529c0-1.089,0.271-1.942,0.811-2.562
			c0.54-0.618,1.259-0.928,2.156-0.928c0.802,0,1.462,0.268,1.979,0.804c0.519,0.536,0.778,1.327,0.778,2.372
			c0,0.244-0.014,0.497-0.039,0.758H9.855c0.044,0.61,0.233,1.1,0.568,1.47c0.336,0.371,0.756,0.556,1.262,0.556
			c0.558,0,1.036-0.2,1.438-0.601l0.692,0.771C13.24,321.31,12.521,321.598,11.659,321.598z M9.843,317.573h3.424
			c-0.009-0.688-0.172-1.187-0.49-1.497c-0.318-0.309-0.69-0.464-1.117-0.464c-0.514,0-0.937,0.164-1.268,0.49
			S9.877,316.919,9.843,317.573z"/>
		<path d="M17.2,313.345c-0.139,0.135-0.309,0.203-0.509,0.203c-0.201,0-0.368-0.069-0.504-0.209
			c-0.135-0.139-0.202-0.305-0.202-0.497c0-0.2,0.069-0.373,0.209-0.516c0.14-0.144,0.305-0.216,0.497-0.216
			c0.2,0,0.37,0.072,0.509,0.216c0.14,0.144,0.21,0.316,0.21,0.516C17.41,313.043,17.34,313.21,17.2,313.345z M16.129,321.441
			v-6.678h1.137v6.678H16.129z"/>
		<path d="M23.552,321.441v-4.038c0-0.601-0.129-1.043-0.386-1.327c-0.257-0.283-0.607-0.425-1.052-0.425
			c-1.028,0-1.542,0.575-1.542,1.725v4.064h-1.137v-6.678h1.137v0.68c0.409-0.558,0.984-0.836,1.725-0.836
			c0.784,0,1.379,0.237,1.784,0.712s0.607,1.235,0.607,2.28v3.842H23.552z"/>
		<path d="M32.634,313.378v8.063h-1.137v-8.063h-2.549v-1.084h6.234v1.084H32.634z"/>
		<path d="M38.424,321.598c-0.906,0-1.627-0.324-2.163-0.974c-0.535-0.649-0.804-1.492-0.804-2.529c0-1.089,0.271-1.942,0.811-2.562
			c0.54-0.618,1.259-0.928,2.156-0.928c0.802,0,1.462,0.268,1.979,0.804c0.519,0.536,0.778,1.327,0.778,2.372
			c0,0.244-0.014,0.497-0.039,0.758H36.62c0.044,0.61,0.233,1.1,0.568,1.47c0.336,0.371,0.756,0.556,1.262,0.556
			c0.558,0,1.036-0.2,1.438-0.601l0.692,0.771C40.005,321.31,39.286,321.598,38.424,321.598z M36.607,317.573h3.424
			c-0.009-0.688-0.172-1.187-0.49-1.497c-0.318-0.309-0.69-0.464-1.117-0.464c-0.514,0-0.937,0.164-1.268,0.49
			S36.642,316.919,36.607,317.573z"/>
		<path d="M43.964,313.345c-0.139,0.135-0.309,0.203-0.509,0.203c-0.201,0-0.368-0.069-0.504-0.209
			c-0.135-0.139-0.202-0.305-0.202-0.497c0-0.2,0.069-0.373,0.209-0.516c0.14-0.144,0.305-0.216,0.497-0.216
			c0.2,0,0.37,0.072,0.509,0.216c0.14,0.144,0.21,0.316,0.21,0.516C44.174,313.043,44.104,313.21,43.964,313.345z M42.893,321.441
			v-6.678h1.137v6.678H42.893z"/>
		<path d="M46.265,321.441v-8.9l1.137-0.536v9.436H46.265z"/>
		<path d="M53.818,321.441l-1.712-6.678h1.123l1.02,4.483c0.009,0.052,0.03,0.161,0.065,0.327s0.061,0.292,0.078,0.379
			c0.018-0.122,0.074-0.357,0.17-0.706l1.255-4.483h0.941l1.254,4.483l0.184,0.731c0.017-0.078,0.041-0.2,0.071-0.366
			s0.055-0.288,0.072-0.366l1.006-4.483h1.124l-1.712,6.678h-1.02l-1.215-3.96c-0.122-0.392-0.205-0.684-0.249-0.875
			c-0.087,0.366-0.165,0.658-0.234,0.875l-1.203,3.96H53.818z"/>
		<path d="M66.089,321.441v-0.64c-0.409,0.531-0.972,0.797-1.686,0.797c-0.811,0-1.418-0.235-1.823-0.706
			c-0.405-0.471-0.607-1.229-0.607-2.274v-3.855h1.137v4.025c0,0.601,0.129,1.043,0.386,1.326c0.257,0.283,0.607,0.425,1.052,0.425
			c1.028,0,1.542-0.575,1.542-1.725v-4.051h1.137v6.678H66.089z"/>
		<path d="M69.396,321.441v-6.678h1.137v0.876c0.313-0.688,0.841-1.033,1.581-1.033c0.418,0,0.763,0.113,1.032,0.34l-0.17,1.072
			c-0.278-0.192-0.597-0.288-0.953-0.288c-0.393,0-0.739,0.152-1.039,0.458c-0.301,0.305-0.451,0.801-0.451,1.49v3.764H69.396z"/>
		<path d="M76.845,321.598c-0.846,0-1.516-0.313-2.013-0.941c-0.496-0.627-0.745-1.481-0.745-2.562c0-1.089,0.251-1.942,0.752-2.562
			c0.501-0.618,1.169-0.928,2.006-0.928c0.653,0,1.215,0.209,1.686,0.627v-2.692l1.137-0.536v9.436H78.53v-0.523
			C78.095,321.371,77.533,321.598,76.845,321.598z M77.002,320.539c0.661,0,1.171-0.3,1.528-0.902v-3.136
			c-0.357-0.566-0.867-0.85-1.528-0.85c-0.567,0-1.003,0.211-1.308,0.634c-0.305,0.423-0.457,1.026-0.457,1.81
			c0,0.706,0.159,1.29,0.477,1.751C76.032,320.309,76.461,320.539,77.002,320.539z"/>
		<path d="M84.398,321.598c-0.906,0-1.627-0.324-2.163-0.974c-0.535-0.649-0.804-1.492-0.804-2.529c0-1.089,0.271-1.942,0.811-2.562
			c0.54-0.618,1.259-0.928,2.156-0.928c0.802,0,1.462,0.268,1.979,0.804c0.519,0.536,0.778,1.327,0.778,2.372
			c0,0.244-0.014,0.497-0.039,0.758h-4.522c0.044,0.61,0.233,1.1,0.568,1.47c0.336,0.371,0.756,0.556,1.262,0.556
			c0.558,0,1.036-0.2,1.438-0.601l0.692,0.771C85.979,321.31,85.261,321.598,84.398,321.598z M82.582,317.573h3.424
			c-0.009-0.688-0.172-1.187-0.49-1.497c-0.318-0.309-0.69-0.464-1.117-0.464c-0.514,0-0.937,0.164-1.268,0.49
			S82.616,316.919,82.582,317.573z"/>
		<path d="M93.978,324.146l-0.549-0.889c0.967-0.052,1.636-0.22,2.006-0.503c0.37-0.283,0.556-0.669,0.556-1.157v-0.81
			c-0.393,0.54-0.968,0.81-1.726,0.81c-0.784,0-1.436-0.305-1.953-0.915c-0.519-0.61-0.778-1.473-0.778-2.588
			c0-1.08,0.255-1.932,0.765-2.555s1.179-0.935,2.006-0.935c0.697,0,1.259,0.235,1.687,0.706v-0.549h1.137v6.404
			c0,1.02-0.272,1.755-0.817,2.208C95.766,323.828,94.988,324.085,93.978,324.146z M94.5,320.539c0.278,0,0.556-0.085,0.83-0.255
			s0.494-0.398,0.66-0.686v-3.058c-0.157-0.261-0.379-0.475-0.667-0.64c-0.287-0.166-0.562-0.249-0.823-0.249
			c-0.593,0-1.043,0.211-1.353,0.634c-0.31,0.423-0.464,1.026-0.464,1.81c0,0.758,0.168,1.355,0.503,1.791
			S93.96,320.539,94.5,320.539z"/>
		<path d="M101.857,321.598c-0.906,0-1.627-0.324-2.163-0.974c-0.535-0.649-0.804-1.492-0.804-2.529
			c0-1.089,0.271-1.942,0.811-2.562c0.54-0.618,1.259-0.928,2.156-0.928c0.802,0,1.462,0.268,1.979,0.804
			c0.519,0.536,0.778,1.327,0.778,2.372c0,0.244-0.014,0.497-0.039,0.758h-4.522c0.044,0.61,0.233,1.1,0.568,1.47
			c0.336,0.371,0.756,0.556,1.262,0.556c0.558,0,1.036-0.2,1.438-0.601l0.692,0.771C103.438,321.31,102.72,321.598,101.857,321.598z
			 M100.041,317.573h3.424c-0.009-0.688-0.172-1.187-0.49-1.497c-0.318-0.309-0.69-0.464-1.117-0.464
			c-0.514,0-0.937,0.164-1.268,0.49S100.075,316.919,100.041,317.573z"/>
		<path d="M110.144,321.441v-0.614c-0.549,0.514-1.181,0.771-1.896,0.771c-0.705,0-1.27-0.194-1.692-0.582s-0.634-0.943-0.634-1.666
			s0.24-1.272,0.719-1.647c0.479-0.375,1.072-0.562,1.777-0.562c0.645,0,1.22,0.144,1.726,0.432v-0.471
			c0-0.558-0.124-0.947-0.373-1.169c-0.248-0.222-0.607-0.333-1.078-0.333c-0.671,0-1.319,0.222-1.947,0.667l-0.326-0.954
			c0.714-0.47,1.521-0.706,2.418-0.706c1.585,0,2.378,0.802,2.378,2.405v4.43H110.144z M108.209,313.404
			c-0.14,0.139-0.31,0.209-0.51,0.209s-0.37-0.07-0.51-0.209c-0.139-0.139-0.209-0.309-0.209-0.51c0-0.2,0.07-0.37,0.209-0.51
			c0.14-0.139,0.31-0.209,0.51-0.209s0.37,0.07,0.51,0.209c0.14,0.14,0.209,0.31,0.209,0.51
			C108.418,313.095,108.349,313.265,108.209,313.404z M108.418,320.592c0.653,0,1.229-0.292,1.726-0.875v-1.15
			c-0.479-0.296-1.002-0.444-1.568-0.444c-0.462,0-0.841,0.104-1.137,0.313c-0.297,0.209-0.444,0.514-0.444,0.915
			c0,0.375,0.124,0.675,0.372,0.901C107.614,320.479,107.965,320.592,108.418,320.592z M110.47,313.404
			c-0.14,0.139-0.309,0.209-0.51,0.209c-0.2,0-0.37-0.07-0.51-0.209c-0.139-0.139-0.209-0.309-0.209-0.51
			c0-0.2,0.07-0.37,0.209-0.51c0.14-0.139,0.31-0.209,0.51-0.209c0.201,0,0.37,0.07,0.51,0.209c0.14,0.14,0.209,0.31,0.209,0.51
			C110.679,313.095,110.609,313.265,110.47,313.404z"/>
		<path d="M117.304,321.441v-4.038c0-0.601-0.129-1.043-0.386-1.327c-0.257-0.283-0.607-0.425-1.052-0.425
			c-1.028,0-1.542,0.575-1.542,1.725v4.064h-1.137v-6.678h1.137v0.68c0.409-0.558,0.984-0.836,1.725-0.836
			c0.784,0,1.379,0.237,1.784,0.712s0.607,1.235,0.607,2.28v3.842H117.304z"/>
		<path d="M122.911,321.598c-0.846,0-1.516-0.313-2.013-0.941c-0.496-0.627-0.745-1.481-0.745-2.562
			c0-1.089,0.251-1.942,0.752-2.562c0.501-0.618,1.169-0.928,2.006-0.928c0.653,0,1.215,0.209,1.686,0.627v-2.692l1.137-0.536v9.436
			h-1.137v-0.523C124.161,321.371,123.6,321.598,122.911,321.598z M123.068,320.539c0.661,0,1.171-0.3,1.528-0.902v-3.136
			c-0.357-0.566-0.867-0.85-1.528-0.85c-0.567,0-1.003,0.211-1.308,0.634c-0.305,0.423-0.457,1.026-0.457,1.81
			c0,0.706,0.159,1.29,0.477,1.751C122.099,320.309,122.527,320.539,123.068,320.539z"/>
		<path d="M130.464,321.598c-0.906,0-1.627-0.324-2.163-0.974c-0.535-0.649-0.804-1.492-0.804-2.529
			c0-1.089,0.271-1.942,0.811-2.562c0.54-0.618,1.259-0.928,2.156-0.928c0.802,0,1.462,0.268,1.979,0.804
			c0.519,0.536,0.778,1.327,0.778,2.372c0,0.244-0.014,0.497-0.039,0.758h-4.522c0.044,0.61,0.233,1.1,0.568,1.47
			c0.336,0.371,0.756,0.556,1.262,0.556c0.558,0,1.036-0.2,1.438-0.601l0.692,0.771C132.045,321.31,131.326,321.598,130.464,321.598
			z M128.647,317.573h3.424c-0.009-0.688-0.172-1.187-0.49-1.497c-0.318-0.309-0.69-0.464-1.117-0.464
			c-0.514,0-0.937,0.164-1.268,0.49S128.682,316.919,128.647,317.573z"/>
		<path d="M134.921,321.441v-6.678h1.137v0.876c0.313-0.688,0.841-1.033,1.581-1.033c0.418,0,0.763,0.113,1.032,0.34l-0.17,1.072
			c-0.278-0.192-0.597-0.288-0.953-0.288c-0.393,0-0.739,0.152-1.039,0.458c-0.301,0.305-0.451,0.801-0.451,1.49v3.764H134.921z"/>
		<path d="M142.003,321.598c-0.94,0-1.411-0.531-1.411-1.594v-4.248h-1.085v-0.993h1.085v-2.208l1.137-0.549v2.757h1.647v0.993
			h-1.647v3.869c0,0.296,0.048,0.522,0.145,0.679c0.096,0.157,0.278,0.235,0.549,0.235c0.296,0,0.627-0.118,0.993-0.353
			l-0.131,1.111C142.9,321.498,142.474,321.598,142.003,321.598z"/>
	</g>
	<line fill="none" stroke="#000000" stroke-width="3" stroke-miterlimit="10" x1="317" y1="176.833" x2="221.5" y2="176.833"/>
	<polygon fill="none" stroke="#000000" stroke-width="3" stroke-miterlimit="10" points="221.5,165.833 221.5,187.833 
		207.5,176.833 	"/>
	<line fill="none" stroke="#000000" stroke-width="3" stroke-miterlimit="10" x1="207.5" y1="107.833" x2="306.5" y2="107.833"/>
	<polygon fill="none" stroke="#000000" stroke-width="3" stroke-miterlimit="10" points="306.5,118.833 306.5,96.833 320.5,107.833 
			"/>
	<g>
		<path d="M69.689,223.125l-16.994-6.869v-2.785l16.994-6.906v3.11l-13.052,5.171l13.052,5.135V223.125z"/>
		<path d="M127,216.256l-16.994,6.869v-3.11l13.017-5.17l-13.017-5.171v-3.11L127,213.471V216.256z"/>
	</g>
	<g>
		<path d="M120.913,257.337l-9.218-3.726V252.1l9.218-3.746v1.687l-7.08,2.805l7.08,2.785V257.337z"/>
		<path d="M152,253.611l-9.218,3.726v-1.687l7.061-2.804l-7.061-2.805v-1.687L152,252.1V253.611z"/>
	</g>
	<g>
		<path d="M69.689,66.125l-16.994-6.869v-2.785l16.994-6.906v3.11l-13.052,5.171l13.052,5.135V66.125z"/>
		<path d="M127,59.256l-16.994,6.869v-3.11l13.017-5.17l-13.017-5.171v-3.11L127,56.471V59.256z"/>
	</g>
</g>
<g id="Ebene_1">
</g>
</svg>
